solid Default
  facet normal -1.000000e+00 -0.000000e+00 -0.000000e+00
    outer loop
      vertex -2.900000e+01 -3.650000e+01 0.000000e+00
      vertex -2.900000e+01 -3.650000e+01 8.000000e+00
      vertex -2.900000e+01 3.650000e+01 0.000000e+00
    endloop
  endfacet
  facet normal -1.000000e+00 0.000000e+00 0.000000e+00
    outer loop
      vertex -2.900000e+01 3.650000e+01 0.000000e+00
      vertex -2.900000e+01 -3.650000e+01 8.000000e+00
      vertex -2.900000e+01 3.650000e+01 8.000000e+00
    endloop
  endfacet
  facet normal 0.000000e+00 -1.000000e+00 0.000000e+00
    outer loop
      vertex 1.400000e+01 -3.650000e+01 1.000000e+00
      vertex -2.900000e+01 -3.650000e+01 0.000000e+00
      vertex 2.900000e+01 -3.650000e+01 0.000000e+00
    endloop
  endfacet
  facet normal 0.000000e+00 -1.000000e+00 0.000000e+00
    outer loop
      vertex -1.750000e+01 -3.650000e+01 1.000000e+00
      vertex -1.750000e+01 -3.650000e+01 8.000000e+00
      vertex -2.900000e+01 -3.650000e+01 8.000000e+00
    endloop
  endfacet
  facet normal 0.000000e+00 -1.000000e+00 0.000000e+00
    outer loop
      vertex 2.900000e+01 -3.650000e+01 8.000000e+00
      vertex 2.350000e+01 -3.650000e+01 8.000000e+00
      vertex 2.900000e+01 -3.650000e+01 0.000000e+00
    endloop
  endfacet
  facet normal 0.000000e+00 -1.000000e+00 0.000000e+00
    outer loop
      vertex 2.350000e+01 -3.650000e+01 8.000000e+00
      vertex 2.350000e+01 -3.650000e+01 1.000000e+00
      vertex 2.900000e+01 -3.650000e+01 0.000000e+00
    endloop
  endfacet
  facet normal 0.000000e+00 -1.000000e+00 0.000000e+00
    outer loop
      vertex -4.500000e+00 -3.650000e+01 8.000000e+00
      vertex -4.500000e+00 -3.650000e+01 1.000000e+00
      vertex 1.400000e+01 -3.650000e+01 1.000000e+00
    endloop
  endfacet
  facet normal 0.000000e+00 -1.000000e+00 0.000000e+00
    outer loop
      vertex -4.500000e+00 -3.650000e+01 1.000000e+00
      vertex -2.900000e+01 -3.650000e+01 0.000000e+00
      vertex 1.400000e+01 -3.650000e+01 1.000000e+00
    endloop
  endfacet
  facet normal 0.000000e+00 -1.000000e+00 0.000000e+00
    outer loop
      vertex -1.750000e+01 -3.650000e+01 1.000000e+00
      vertex -2.900000e+01 -3.650000e+01 0.000000e+00
      vertex -4.500000e+00 -3.650000e+01 1.000000e+00
    endloop
  endfacet
  facet normal 0.000000e+00 -1.000000e+00 0.000000e+00
    outer loop
      vertex -2.900000e+01 -3.650000e+01 8.000000e+00
      vertex -2.900000e+01 -3.650000e+01 0.000000e+00
      vertex -1.750000e+01 -3.650000e+01 1.000000e+00
    endloop
  endfacet
  facet normal 0.000000e+00 -1.000000e+00 0.000000e+00
    outer loop
      vertex 2.350000e+01 -3.650000e+01 1.000000e+00
      vertex 1.400000e+01 -3.650000e+01 1.000000e+00
      vertex 2.900000e+01 -3.650000e+01 0.000000e+00
    endloop
  endfacet
  facet normal 0.000000e+00 -1.000000e+00 0.000000e+00
    outer loop
      vertex 1.400000e+01 -3.650000e+01 1.000000e+00
      vertex 1.400000e+01 -3.650000e+01 8.000000e+00
      vertex -4.500000e+00 -3.650000e+01 8.000000e+00
    endloop
  endfacet
  facet normal 0.000000e+00 0.000000e+00 -1.000000e+00
    outer loop
      vertex -2.100000e+01 2.850000e+01 0.000000e+00
      vertex -2.900000e+01 3.650000e+01 0.000000e+00
      vertex 2.900000e+01 3.650000e+01 0.000000e+00
    endloop
  endfacet
  facet normal 0.000000e+00 0.000000e+00 -1.000000e+00
    outer loop
      vertex 2.100000e+01 2.850000e+01 0.000000e+00
      vertex -2.100000e+01 2.850000e+01 0.000000e+00
      vertex 2.900000e+01 3.650000e+01 0.000000e+00
    endloop
  endfacet
  facet normal 0.000000e+00 0.000000e+00 -1.000000e+00
    outer loop
      vertex -2.900000e+01 -3.650000e+01 0.000000e+00
      vertex -2.900000e+01 3.650000e+01 0.000000e+00
      vertex -2.100000e+01 -2.850000e+01 0.000000e+00
    endloop
  endfacet
  facet normal 0.000000e+00 0.000000e+00 -1.000000e+00
    outer loop
      vertex -2.900000e+01 -3.650000e+01 0.000000e+00
      vertex -2.100000e+01 -2.850000e+01 0.000000e+00
      vertex 2.900000e+01 -3.650000e+01 0.000000e+00
    endloop
  endfacet
  facet normal 0.000000e+00 0.000000e+00 -1.000000e+00
    outer loop
      vertex 2.100000e+01 2.850000e+01 0.000000e+00
      vertex 2.900000e+01 -3.650000e+01 0.000000e+00
      vertex 2.100000e+01 -2.850000e+01 0.000000e+00
    endloop
  endfacet
  facet normal 0.000000e+00 0.000000e+00 -1.000000e+00
    outer loop
      vertex -2.100000e+01 -2.850000e+01 0.000000e+00
      vertex 2.100000e+01 -2.850000e+01 0.000000e+00
      vertex 2.900000e+01 -3.650000e+01 0.000000e+00
    endloop
  endfacet
  facet normal 0.000000e+00 0.000000e+00 -1.000000e+00
    outer loop
      vertex 2.900000e+01 -3.650000e+01 0.000000e+00
      vertex 2.100000e+01 2.850000e+01 0.000000e+00
      vertex 2.900000e+01 3.650000e+01 0.000000e+00
    endloop
  endfacet
  facet normal 0.000000e+00 0.000000e+00 -1.000000e+00
    outer loop
      vertex -2.100000e+01 -2.850000e+01 0.000000e+00
      vertex -2.900000e+01 3.650000e+01 0.000000e+00
      vertex -2.100000e+01 2.850000e+01 0.000000e+00
    endloop
  endfacet
  facet normal 0.000000e+00 1.000000e+00 0.000000e+00
    outer loop
      vertex -2.900000e+01 3.650000e+01 0.000000e+00
      vertex -2.900000e+01 3.650000e+01 8.000000e+00
      vertex 2.900000e+01 3.650000e+01 0.000000e+00
    endloop
  endfacet
  facet normal 0.000000e+00 1.000000e+00 0.000000e+00
    outer loop
      vertex 2.900000e+01 3.650000e+01 0.000000e+00
      vertex -2.900000e+01 3.650000e+01 8.000000e+00
      vertex 2.900000e+01 3.650000e+01 8.000000e+00
    endloop
  endfacet
  facet normal 0.000000e+00 0.000000e+00 1.000000e+00
    outer loop
      vertex -2.700000e+01 -3.450000e+01 8.000000e+00
      vertex -2.900000e+01 -3.650000e+01 8.000000e+00
      vertex -1.750000e+01 -3.650000e+01 8.000000e+00
    endloop
  endfacet
  facet normal 0.000000e+00 0.000000e+00 1.000000e+00
    outer loop
      vertex -2.700000e+01 -3.450000e+01 8.000000e+00
      vertex -2.700000e+01 3.450000e+01 8.000000e+00
      vertex -2.900000e+01 3.650000e+01 8.000000e+00
    endloop
  endfacet
  facet normal 0.000000e+00 0.000000e+00 1.000000e+00
    outer loop
      vertex -2.900000e+01 3.650000e+01 8.000000e+00
      vertex -2.900000e+01 -3.650000e+01 8.000000e+00
      vertex -2.700000e+01 -3.450000e+01 8.000000e+00
    endloop
  endfacet
  facet normal 0.000000e+00 0.000000e+00 1.000000e+00
    outer loop
      vertex 2.700000e+01 3.450000e+01 8.000000e+00
      vertex -2.900000e+01 3.650000e+01 8.000000e+00
      vertex -2.700000e+01 3.450000e+01 8.000000e+00
    endloop
  endfacet
  facet normal 0.000000e+00 0.000000e+00 1.000000e+00
    outer loop
      vertex 2.900000e+01 3.650000e+01 8.000000e+00
      vertex -2.900000e+01 3.650000e+01 8.000000e+00
      vertex 2.700000e+01 3.450000e+01 8.000000e+00
    endloop
  endfacet
  facet normal 0.000000e+00 0.000000e+00 1.000000e+00
    outer loop
      vertex 2.900000e+01 -3.650000e+01 8.000000e+00
      vertex 2.700000e+01 3.450000e+01 8.000000e+00
      vertex 2.700000e+01 -3.450000e+01 8.000000e+00
    endloop
  endfacet
  facet normal 0.000000e+00 0.000000e+00 1.000000e+00
    outer loop
      vertex 2.900000e+01 -3.650000e+01 8.000000e+00
      vertex 2.700000e+01 -3.450000e+01 8.000000e+00
      vertex 2.350000e+01 -3.650000e+01 8.000000e+00
    endloop
  endfacet
  facet normal 0.000000e+00 0.000000e+00 1.000000e+00
    outer loop
      vertex 2.900000e+01 3.650000e+01 8.000000e+00
      vertex 2.700000e+01 3.450000e+01 8.000000e+00
      vertex 2.900000e+01 -3.650000e+01 8.000000e+00
    endloop
  endfacet
  facet normal 0.000000e+00 0.000000e+00 1.000000e+00
    outer loop
      vertex 2.350000e+01 -3.450000e+01 8.000000e+00
      vertex 2.350000e+01 -3.650000e+01 8.000000e+00
      vertex 2.700000e+01 -3.450000e+01 8.000000e+00
    endloop
  endfacet
  facet normal 0.000000e+00 0.000000e+00 1.000000e+00
    outer loop
      vertex -1.750000e+01 -3.450000e+01 8.000000e+00
      vertex -2.700000e+01 -3.450000e+01 8.000000e+00
      vertex -1.750000e+01 -3.650000e+01 8.000000e+00
    endloop
  endfacet
  facet normal 1.000000e+00 0.000000e+00 0.000000e+00
    outer loop
      vertex -1.750000e+01 -3.450000e+01 1.000000e+00
      vertex -1.750000e+01 -3.450000e+01 8.000000e+00
      vertex -1.750000e+01 -3.650000e+01 8.000000e+00
    endloop
  endfacet
  facet normal 1.000000e+00 0.000000e+00 0.000000e+00
    outer loop
      vertex -1.750000e+01 -3.650000e+01 1.000000e+00
      vertex -1.750000e+01 -3.450000e+01 1.000000e+00
      vertex -1.750000e+01 -3.650000e+01 8.000000e+00
    endloop
  endfacet
  facet normal 0.000000e+00 0.000000e+00 1.000000e+00
    outer loop
      vertex -1.750000e+01 -3.450000e+01 1.000000e+00
      vertex -1.750000e+01 -3.650000e+01 1.000000e+00
      vertex -4.500000e+00 -3.650000e+01 1.000000e+00
    endloop
  endfacet
  facet normal 0.000000e+00 0.000000e+00 1.000000e+00
    outer loop
      vertex 2.100000e+01 -2.850000e+01 1.000000e+00
      vertex -2.100000e+01 -2.850000e+01 1.000000e+00
      vertex -1.750000e+01 -3.450000e+01 1.000000e+00
    endloop
  endfacet
  facet normal 0.000000e+00 0.000000e+00 1.000000e+00
    outer loop
      vertex -4.500000e+00 -3.450000e+01 1.000000e+00
      vertex -1.750000e+01 -3.450000e+01 1.000000e+00
      vertex -4.500000e+00 -3.650000e+01 1.000000e+00
    endloop
  endfacet
  facet normal 0.000000e+00 0.000000e+00 1.000000e+00
    outer loop
      vertex 2.350000e+01 -3.650000e+01 1.000000e+00
      vertex 1.400000e+01 -3.450000e+01 1.000000e+00
      vertex 1.400000e+01 -3.650000e+01 1.000000e+00
    endloop
  endfacet
  facet normal 0.000000e+00 0.000000e+00 1.000000e+00
    outer loop
      vertex 2.350000e+01 -3.450000e+01 1.000000e+00
      vertex 1.400000e+01 -3.450000e+01 1.000000e+00
      vertex 2.350000e+01 -3.650000e+01 1.000000e+00
    endloop
  endfacet
  facet normal 0.000000e+00 0.000000e+00 1.000000e+00
    outer loop
      vertex 2.100000e+01 -2.850000e+01 1.000000e+00
      vertex 1.400000e+01 -3.450000e+01 1.000000e+00
      vertex 2.350000e+01 -3.450000e+01 1.000000e+00
    endloop
  endfacet
  facet normal 0.000000e+00 0.000000e+00 1.000000e+00
    outer loop
      vertex 2.700000e+01 3.450000e+01 1.000000e+00
      vertex 2.350000e+01 -3.450000e+01 1.000000e+00
      vertex 2.700000e+01 -3.450000e+01 1.000000e+00
    endloop
  endfacet
  facet normal 0.000000e+00 0.000000e+00 1.000000e+00
    outer loop
      vertex -2.100000e+01 -2.850000e+01 1.000000e+00
      vertex -2.100000e+01 2.850000e+01 1.000000e+00
      vertex -2.700000e+01 3.450000e+01 1.000000e+00
    endloop
  endfacet
  facet normal 0.000000e+00 0.000000e+00 1.000000e+00
    outer loop
      vertex -2.700000e+01 3.450000e+01 1.000000e+00
      vertex -2.100000e+01 2.850000e+01 1.000000e+00
      vertex 2.700000e+01 3.450000e+01 1.000000e+00
    endloop
  endfacet
  facet normal 0.000000e+00 0.000000e+00 1.000000e+00
    outer loop
      vertex 2.100000e+01 -2.850000e+01 1.000000e+00
      vertex -4.500000e+00 -3.450000e+01 1.000000e+00
      vertex 1.400000e+01 -3.450000e+01 1.000000e+00
    endloop
  endfacet
  facet normal 0.000000e+00 0.000000e+00 1.000000e+00
    outer loop
      vertex -2.100000e+01 2.850000e+01 1.000000e+00
      vertex 2.100000e+01 2.850000e+01 1.000000e+00
      vertex 2.700000e+01 3.450000e+01 1.000000e+00
    endloop
  endfacet
  facet normal 0.000000e+00 0.000000e+00 1.000000e+00
    outer loop
      vertex 2.700000e+01 3.450000e+01 1.000000e+00
      vertex 2.100000e+01 -2.850000e+01 1.000000e+00
      vertex 2.350000e+01 -3.450000e+01 1.000000e+00
    endloop
  endfacet
  facet normal 0.000000e+00 0.000000e+00 1.000000e+00
    outer loop
      vertex -2.700000e+01 -3.450000e+01 1.000000e+00
      vertex -2.100000e+01 -2.850000e+01 1.000000e+00
      vertex -2.700000e+01 3.450000e+01 1.000000e+00
    endloop
  endfacet
  facet normal 0.000000e+00 0.000000e+00 1.000000e+00
    outer loop
      vertex 2.100000e+01 -2.850000e+01 1.000000e+00
      vertex -1.750000e+01 -3.450000e+01 1.000000e+00
      vertex -4.500000e+00 -3.450000e+01 1.000000e+00
    endloop
  endfacet
  facet normal 0.000000e+00 0.000000e+00 1.000000e+00
    outer loop
      vertex -2.700000e+01 -3.450000e+01 1.000000e+00
      vertex -1.750000e+01 -3.450000e+01 1.000000e+00
      vertex -2.100000e+01 -2.850000e+01 1.000000e+00
    endloop
  endfacet
  facet normal 0.000000e+00 0.000000e+00 1.000000e+00
    outer loop
      vertex 2.100000e+01 2.850000e+01 1.000000e+00
      vertex 2.100000e+01 -2.850000e+01 1.000000e+00
      vertex 2.700000e+01 3.450000e+01 1.000000e+00
    endloop
  endfacet
  facet normal -1.000000e+00 0.000000e+00 0.000000e+00
    outer loop
      vertex -4.500000e+00 -3.450000e+01 8.000000e+00
      vertex -4.500000e+00 -3.450000e+01 1.000000e+00
      vertex -4.500000e+00 -3.650000e+01 8.000000e+00
    endloop
  endfacet
  facet normal -1.000000e+00 0.000000e+00 0.000000e+00
    outer loop
      vertex -4.500000e+00 -3.650000e+01 8.000000e+00
      vertex -4.500000e+00 -3.450000e+01 1.000000e+00
      vertex -4.500000e+00 -3.650000e+01 1.000000e+00
    endloop
  endfacet
  facet normal 0.000000e+00 0.000000e+00 1.000000e+00
    outer loop
      vertex -4.500000e+00 -3.450000e+01 8.000000e+00
      vertex -4.500000e+00 -3.650000e+01 8.000000e+00
      vertex 1.400000e+01 -3.650000e+01 8.000000e+00
    endloop
  endfacet
  facet normal 0.000000e+00 0.000000e+00 1.000000e+00
    outer loop
      vertex 1.400000e+01 -3.450000e+01 8.000000e+00
      vertex -4.500000e+00 -3.450000e+01 8.000000e+00
      vertex 1.400000e+01 -3.650000e+01 8.000000e+00
    endloop
  endfacet
  facet normal 1.000000e+00 0.000000e+00 0.000000e+00
    outer loop
      vertex 1.400000e+01 -3.450000e+01 1.000000e+00
      vertex 1.400000e+01 -3.450000e+01 8.000000e+00
      vertex 1.400000e+01 -3.650000e+01 8.000000e+00
    endloop
  endfacet
  facet normal 1.000000e+00 0.000000e+00 0.000000e+00
    outer loop
      vertex 1.400000e+01 -3.650000e+01 1.000000e+00
      vertex 1.400000e+01 -3.450000e+01 1.000000e+00
      vertex 1.400000e+01 -3.650000e+01 8.000000e+00
    endloop
  endfacet
  facet normal -1.000000e+00 0.000000e+00 0.000000e+00
    outer loop
      vertex 2.350000e+01 -3.450000e+01 8.000000e+00
      vertex 2.350000e+01 -3.450000e+01 1.000000e+00
      vertex 2.350000e+01 -3.650000e+01 8.000000e+00
    endloop
  endfacet
  facet normal -1.000000e+00 0.000000e+00 0.000000e+00
    outer loop
      vertex 2.350000e+01 -3.650000e+01 8.000000e+00
      vertex 2.350000e+01 -3.450000e+01 1.000000e+00
      vertex 2.350000e+01 -3.650000e+01 1.000000e+00
    endloop
  endfacet
  facet normal 1.000000e+00 0.000000e+00 0.000000e+00
    outer loop
      vertex 2.900000e+01 -3.650000e+01 8.000000e+00
      vertex 2.900000e+01 -3.650000e+01 0.000000e+00
      vertex 2.900000e+01 3.650000e+01 0.000000e+00
    endloop
  endfacet
  facet normal 1.000000e+00 0.000000e+00 0.000000e+00
    outer loop
      vertex 2.900000e+01 3.650000e+01 8.000000e+00
      vertex 2.900000e+01 -3.650000e+01 8.000000e+00
      vertex 2.900000e+01 3.650000e+01 0.000000e+00
    endloop
  endfacet
  facet normal 1.000000e+00 0.000000e+00 0.000000e+00
    outer loop
      vertex -2.100000e+01 2.850000e+01 0.000000e+00
      vertex -2.100000e+01 2.850000e+01 1.000000e+00
      vertex -2.100000e+01 -2.850000e+01 1.000000e+00
    endloop
  endfacet
  facet normal 1.000000e+00 0.000000e+00 0.000000e+00
    outer loop
      vertex -2.100000e+01 -2.850000e+01 0.000000e+00
      vertex -2.100000e+01 2.850000e+01 0.000000e+00
      vertex -2.100000e+01 -2.850000e+01 1.000000e+00
    endloop
  endfacet
  facet normal 0.000000e+00 -1.000000e+00 0.000000e+00
    outer loop
      vertex 2.100000e+01 2.850000e+01 0.000000e+00
      vertex 2.100000e+01 2.850000e+01 1.000000e+00
      vertex -2.100000e+01 2.850000e+01 1.000000e+00
    endloop
  endfacet
  facet normal -0.000000e+00 -1.000000e+00 -0.000000e+00
    outer loop
      vertex -2.100000e+01 2.850000e+01 0.000000e+00
      vertex 2.100000e+01 2.850000e+01 0.000000e+00
      vertex -2.100000e+01 2.850000e+01 1.000000e+00
    endloop
  endfacet
  facet normal -1.000000e+00 0.000000e+00 0.000000e+00
    outer loop
      vertex 2.100000e+01 2.850000e+01 1.000000e+00
      vertex 2.100000e+01 2.850000e+01 0.000000e+00
      vertex 2.100000e+01 -2.850000e+01 1.000000e+00
    endloop
  endfacet
  facet normal -1.000000e+00 0.000000e+00 0.000000e+00
    outer loop
      vertex 2.100000e+01 -2.850000e+01 1.000000e+00
      vertex 2.100000e+01 2.850000e+01 0.000000e+00
      vertex 2.100000e+01 -2.850000e+01 0.000000e+00
    endloop
  endfacet
  facet normal 0.000000e+00 1.000000e+00 0.000000e+00
    outer loop
      vertex 2.100000e+01 -2.850000e+01 1.000000e+00
      vertex 2.100000e+01 -2.850000e+01 0.000000e+00
      vertex -2.100000e+01 -2.850000e+01 1.000000e+00
    endloop
  endfacet
  facet normal 0.000000e+00 1.000000e+00 0.000000e+00
    outer loop
      vertex -2.100000e+01 -2.850000e+01 1.000000e+00
      vertex 2.100000e+01 -2.850000e+01 0.000000e+00
      vertex -2.100000e+01 -2.850000e+01 0.000000e+00
    endloop
  endfacet
  facet normal 0.000000e+00 1.000000e+00 0.000000e+00
    outer loop
      vertex 2.700000e+01 -3.450000e+01 8.000000e+00
      vertex 2.700000e+01 -3.450000e+01 1.000000e+00
      vertex 2.350000e+01 -3.450000e+01 8.000000e+00
    endloop
  endfacet
  facet normal 0.000000e+00 1.000000e+00 0.000000e+00
    outer loop
      vertex 2.350000e+01 -3.450000e+01 8.000000e+00
      vertex 2.700000e+01 -3.450000e+01 1.000000e+00
      vertex 2.350000e+01 -3.450000e+01 1.000000e+00
    endloop
  endfacet
  facet normal -1.000000e+00 0.000000e+00 0.000000e+00
    outer loop
      vertex 2.700000e+01 3.450000e+01 8.000000e+00
      vertex 2.700000e+01 3.450000e+01 1.000000e+00
      vertex 2.700000e+01 -3.450000e+01 8.000000e+00
    endloop
  endfacet
  facet normal -1.000000e+00 0.000000e+00 0.000000e+00
    outer loop
      vertex 2.700000e+01 -3.450000e+01 8.000000e+00
      vertex 2.700000e+01 3.450000e+01 1.000000e+00
      vertex 2.700000e+01 -3.450000e+01 1.000000e+00
    endloop
  endfacet
  facet normal 0.000000e+00 -1.000000e+00 0.000000e+00
    outer loop
      vertex 2.700000e+01 3.450000e+01 1.000000e+00
      vertex 2.700000e+01 3.450000e+01 8.000000e+00
      vertex -2.700000e+01 3.450000e+01 8.000000e+00
    endloop
  endfacet
  facet normal -0.000000e+00 -1.000000e+00 -0.000000e+00
    outer loop
      vertex -2.700000e+01 3.450000e+01 1.000000e+00
      vertex 2.700000e+01 3.450000e+01 1.000000e+00
      vertex -2.700000e+01 3.450000e+01 8.000000e+00
    endloop
  endfacet
  facet normal 1.000000e+00 0.000000e+00 0.000000e+00
    outer loop
      vertex -2.700000e+01 3.450000e+01 1.000000e+00
      vertex -2.700000e+01 3.450000e+01 8.000000e+00
      vertex -2.700000e+01 -3.450000e+01 8.000000e+00
    endloop
  endfacet
  facet normal 1.000000e+00 0.000000e+00 0.000000e+00
    outer loop
      vertex -2.700000e+01 -3.450000e+01 1.000000e+00
      vertex -2.700000e+01 3.450000e+01 1.000000e+00
      vertex -2.700000e+01 -3.450000e+01 8.000000e+00
    endloop
  endfacet
  facet normal 0.000000e+00 1.000000e+00 0.000000e+00
    outer loop
      vertex -1.750000e+01 -3.450000e+01 8.000000e+00
      vertex -1.750000e+01 -3.450000e+01 1.000000e+00
      vertex -2.700000e+01 -3.450000e+01 8.000000e+00
    endloop
  endfacet
  facet normal 0.000000e+00 1.000000e+00 0.000000e+00
    outer loop
      vertex -2.700000e+01 -3.450000e+01 8.000000e+00
      vertex -1.750000e+01 -3.450000e+01 1.000000e+00
      vertex -2.700000e+01 -3.450000e+01 1.000000e+00
    endloop
  endfacet
  facet normal 0.000000e+00 1.000000e+00 0.000000e+00
    outer loop
      vertex 1.400000e+01 -3.450000e+01 8.000000e+00
      vertex 1.400000e+01 -3.450000e+01 1.000000e+00
      vertex -4.500000e+00 -3.450000e+01 8.000000e+00
    endloop
  endfacet
  facet normal 0.000000e+00 1.000000e+00 0.000000e+00
    outer loop
      vertex -4.500000e+00 -3.450000e+01 8.000000e+00
      vertex 1.400000e+01 -3.450000e+01 1.000000e+00
      vertex -4.500000e+00 -3.450000e+01 1.000000e+00
    endloop
  endfacet
endsolid Default
