solid uploads_e5_45_75_3a_7b_knockoff-pro-mini-base
facet normal 0.0 0.0 1.0
  outer loop
    vertex 0.9999999999999999 8.13 4.599999999999997
    vertex 0.0 10.100000000000001 4.599999999999997
    vertex 0.0 8.13 4.599999999999997
  endloop
endfacet
facet normal 0.0 0.0 1.0
  outer loop
    vertex 0.0 10.100000000000001 4.599999999999997
    vertex 0.9999999999999999 8.13 4.599999999999997
    vertex 0.9999999999999999 10.100000000000001 4.599999999999997
  endloop
endfacet
facet normal 0.0 0.0 1.0
  outer loop
    vertex 34.5 17.0 4.599999999999997
    vertex 32.5 18.499999999999996 4.599999999999997
    vertex 32.5 17.0 4.599999999999997
  endloop
endfacet
facet normal 0.0 0.0 1.0
  outer loop
    vertex -1.9999999999999998 -1.9999999999999991 4.599999999999997
    vertex 0.0 0.0 4.599999999999997
    vertex -1.9999999999999998 20.500000000000004 4.599999999999997
  endloop
endfacet
facet normal 0.0 0.0 1.0
  outer loop
    vertex 0.0 0.0 4.599999999999997
    vertex -1.9999999999999998 -1.9999999999999991 4.599999999999997
    vertex 36.5 -1.9999999999999991 4.599999999999997
  endloop
endfacet
facet normal 0.0 0.0 1.0
  outer loop
    vertex 0.0 0.0 4.599999999999997
    vertex 36.5 -1.9999999999999991 4.599999999999997
    vertex 32.5 0.0 4.599999999999997
  endloop
endfacet
facet normal 0.0 0.0 1.0
  outer loop
    vertex 32.5 0.0 4.599999999999997
    vertex 36.5 -1.9999999999999991 4.599999999999997
    vertex 32.5 1.5 4.599999999999997
  endloop
endfacet
facet normal 0.0 0.0 1.0
  outer loop
    vertex 32.5 1.5 4.599999999999997
    vertex 36.5 -1.9999999999999991 4.599999999999997
    vertex 34.5 1.5 4.599999999999997
  endloop
endfacet
facet normal 0.0 0.0 1.0
  outer loop
    vertex 34.5 1.5 4.599999999999997
    vertex 36.5 -1.9999999999999991 4.599999999999997
    vertex 34.5 17.0 4.599999999999997
  endloop
endfacet
facet normal 0.0 0.0 1.0
  outer loop
    vertex -1.9999999999999998 20.500000000000004 4.599999999999997
    vertex 0.0 18.499999999999996 4.599999999999997
    vertex 36.5 20.500000000000004 4.599999999999997
  endloop
endfacet
facet normal 0.0 0.0 1.0
  outer loop
    vertex 0.0 18.499999999999996 4.599999999999997
    vertex -1.9999999999999998 20.500000000000004 4.599999999999997
    vertex 0.0 0.0 4.599999999999997
  endloop
endfacet
facet normal 0.0 0.0 1.0
  outer loop
    vertex 0.0 18.499999999999996 4.599999999999997
    vertex 0.0 0.0 4.599999999999997
    vertex 0.0 8.13 4.599999999999997
  endloop
endfacet
facet normal 0.0 0.0 1.0
  outer loop
    vertex 0.0 18.499999999999996 4.599999999999997
    vertex 0.0 8.13 4.599999999999997
    vertex 0.0 10.100000000000001 4.599999999999997
  endloop
endfacet
facet normal 0.0 0.0 1.0
  outer loop
    vertex 36.5 20.500000000000004 4.599999999999997
    vertex 0.0 18.499999999999996 4.599999999999997
    vertex 32.5 18.499999999999996 4.599999999999997
  endloop
endfacet
facet normal 0.0 0.0 1.0
  outer loop
    vertex 36.5 20.500000000000004 4.599999999999997
    vertex 32.5 18.499999999999996 4.599999999999997
    vertex 34.5 17.0 4.599999999999997
  endloop
endfacet
facet normal 0.0 0.0 1.0
  outer loop
    vertex 36.5 20.500000000000004 4.599999999999997
    vertex 34.5 17.0 4.599999999999997
    vertex 36.5 -1.9999999999999991 4.599999999999997
  endloop
endfacet
facet normal 0.7071067811865475 0.0 0.7071067811865477
  outer loop
    vertex 1.9999999999999998 8.13 3.5999999999999974
    vertex 0.9999999999999999 10.100000000000001 4.599999999999997
    vertex 0.9999999999999999 8.13 4.599999999999997
  endloop
endfacet
facet normal 0.7071067811865475 0.0 0.7071067811865477
  outer loop
    vertex 0.9999999999999999 10.100000000000001 4.599999999999997
    vertex 1.9999999999999998 8.13 3.5999999999999974
    vertex 1.9999999999999998 10.100000000000001 3.5999999999999974
  endloop
endfacet
facet normal -1.0 0.0 0.0
  outer loop
    vertex -1.9999999999999998 20.500000000000004 4.599999999999997
    vertex -1.9999999999999998 -1.9999999999999991 -0.49999999999999994
    vertex -1.9999999999999998 -1.9999999999999991 4.599999999999997
  endloop
endfacet
facet normal -1.0 0.0 0.0
  outer loop
    vertex -1.9999999999999998 -1.9999999999999991 -0.49999999999999994
    vertex -1.9999999999999998 20.500000000000004 4.599999999999997
    vertex -1.9999999999999998 20.500000000000004 -0.49999999999999994
  endloop
endfacet
facet normal 5.71875910409823e-17 1.0 -2.5689953940520457e-16
  outer loop
    vertex -1.9999999999999998 20.500000000000004 4.599999999999997
    vertex 11.999999999999993 20.500000000000004 -0.49999999999999994
    vertex -1.9999999999999998 20.500000000000004 -0.49999999999999994
  endloop
endfacet
facet normal 5.71875910409823e-17 1.0 -2.5689953940520457e-16
  outer loop
    vertex 11.999999999999993 20.500000000000004 -0.49999999999999994
    vertex -1.9999999999999998 20.500000000000004 4.599999999999997
    vertex 11.999999999999993 20.500000000000004 1.9999999999999998
  endloop
endfacet
facet normal 5.71875910409823e-17 1.0 -2.5689953940520457e-16
  outer loop
    vertex 11.999999999999993 20.500000000000004 1.9999999999999998
    vertex -1.9999999999999998 20.500000000000004 4.599999999999997
    vertex 22.50000000000001 20.499999999999993 1.9999999999999998
  endloop
endfacet
facet normal 5.71875910409823e-17 1.0 -2.5689953940520457e-16
  outer loop
    vertex 22.50000000000001 20.499999999999993 1.9999999999999998
    vertex 36.5 20.500000000000004 -0.49999999999999994
    vertex 22.50000000000001 20.499999999999993 -0.49999999999999994
  endloop
endfacet
facet normal 5.71875910409823e-17 1.0 -2.5689953940520457e-16
  outer loop
    vertex 36.5 20.500000000000004 -0.49999999999999994
    vertex 22.50000000000001 20.499999999999993 1.9999999999999998
    vertex 36.5 20.500000000000004 4.599999999999997
  endloop
endfacet
facet normal 5.71875910409823e-17 1.0 -2.5689953940520457e-16
  outer loop
    vertex 36.5 20.500000000000004 4.599999999999997
    vertex 22.50000000000001 20.499999999999993 1.9999999999999998
    vertex -1.9999999999999998 20.500000000000004 4.599999999999997
  endloop
endfacet
facet normal 1.0 -3.0486124135652946e-16 0.0
  outer loop
    vertex 22.500000000000014 29.500000000000004 -0.49999999999999994
    vertex 22.50000000000001 20.499999999999993 1.9999999999999998
    vertex 22.50000000000001 20.499999999999993 -0.49999999999999994
  endloop
endfacet
facet normal 1.0 -3.0486124135652946e-16 0.0
  outer loop
    vertex 22.50000000000001 20.499999999999993 1.9999999999999998
    vertex 22.500000000000014 29.500000000000004 -0.49999999999999994
    vertex 22.500000000000014 29.500000000000004 1.9999999999999998
  endloop
endfacet
facet normal -1.0 0.0 0.0
  outer loop
    vertex 34.5 17.0 4.599999999999997
    vertex 34.5 1.5 3.5999999999999974
    vertex 34.5 1.5 4.599999999999997
  endloop
endfacet
facet normal -1.0 0.0 0.0
  outer loop
    vertex 34.5 1.5 3.5999999999999974
    vertex 34.5 0.0 0.5999999999999971
    vertex 34.5 0.0 3.5999999999999974
  endloop
endfacet
facet normal -1.0 0.0 0.0
  outer loop
    vertex 34.5 0.0 0.5999999999999971
    vertex 34.5 1.5 3.5999999999999974
    vertex 34.5 18.499999999999996 0.5999999999999971
  endloop
endfacet
facet normal -1.0 0.0 0.0
  outer loop
    vertex 34.5 18.499999999999996 0.5999999999999971
    vertex 34.5 1.5 3.5999999999999974
    vertex 34.5 17.0 3.5999999999999974
  endloop
endfacet
facet normal -1.0 0.0 0.0
  outer loop
    vertex 34.5 17.0 3.5999999999999974
    vertex 34.5 1.5 3.5999999999999974
    vertex 34.5 17.0 4.599999999999997
  endloop
endfacet
facet normal -1.0 0.0 0.0
  outer loop
    vertex 34.5 18.499999999999996 0.5999999999999971
    vertex 34.5 17.0 3.5999999999999974
    vertex 34.5 18.499999999999996 3.5999999999999974
  endloop
endfacet
facet normal 0.0 0.0 -1.0
  outer loop
    vertex 34.5 18.499999999999996 3.5999999999999974
    vertex 32.5 17.0 3.5999999999999974
    vertex 32.5 18.499999999999996 3.5999999999999974
  endloop
endfacet
facet normal 0.0 0.0 -1.0
  outer loop
    vertex 32.5 17.0 3.5999999999999974
    vertex 34.5 18.499999999999996 3.5999999999999974
    vertex 34.5 17.0 3.5999999999999974
  endloop
endfacet
facet normal 0.0 1.0 0.0
  outer loop
    vertex 32.5 1.5 4.599999999999997
    vertex 34.5 1.5 3.5999999999999974
    vertex 32.5 1.5 3.5999999999999974
  endloop
endfacet
facet normal 0.0 1.0 0.0
  outer loop
    vertex 34.5 1.5 3.5999999999999974
    vertex 32.5 1.5 4.599999999999997
    vertex 34.5 1.5 4.599999999999997
  endloop
endfacet
facet normal -1.0 -0.0 -0.0
  outer loop
    vertex 32.5 18.499999999999996 4.599999999999997
    vertex 32.5 17.0 3.5999999999999974
    vertex 32.5 17.0 4.599999999999997
  endloop
endfacet
facet normal -1.0 -0.0 -0.0
  outer loop
    vertex 32.5 17.0 3.5999999999999974
    vertex 32.5 18.499999999999996 4.599999999999997
    vertex 32.5 18.499999999999996 3.5999999999999974
  endloop
endfacet
facet normal 1.0 0.0 0.0
  outer loop
    vertex 31.5 15.500000000000002 0.5999999999999985
    vertex 31.5 5.499999999999998 1.9999999999999973
    vertex 31.5 5.499999999999998 0.5999999999999975
  endloop
endfacet
facet normal 1.0 0.0 0.0
  outer loop
    vertex 31.5 5.499999999999998 1.9999999999999973
    vertex 31.5 15.500000000000002 0.5999999999999985
    vertex 31.5 15.500000000000002 1.999999999999999
  endloop
endfacet
facet normal -1.0 3.0486124135652946e-16 0.0
  outer loop
    vertex 11.999999999999995 29.500000000000004 1.9999999999999998
    vertex 11.999999999999993 20.500000000000004 -0.49999999999999994
    vertex 11.999999999999993 20.500000000000004 1.9999999999999998
  endloop
endfacet
facet normal -1.0 3.0486124135652946e-16 0.0
  outer loop
    vertex 11.999999999999993 20.500000000000004 -0.49999999999999994
    vertex 11.999999999999995 29.500000000000004 1.9999999999999998
    vertex 11.999999999999995 29.500000000000004 -0.49999999999999994
  endloop
endfacet
facet normal 0.0 -1.0 0.0
  outer loop
    vertex 34.5 18.499999999999996 3.5999999999999974
    vertex 0.0 18.499999999999996 0.5999999999999971
    vertex 34.5 18.499999999999996 0.5999999999999971
  endloop
endfacet
facet normal 0.0 -1.0 0.0
  outer loop
    vertex 0.0 18.499999999999996 0.5999999999999971
    vertex 34.5 18.499999999999996 3.5999999999999974
    vertex 32.5 18.499999999999996 3.5999999999999974
  endloop
endfacet
facet normal 0.0 -1.0 0.0
  outer loop
    vertex 0.0 18.499999999999996 0.5999999999999971
    vertex 32.5 18.499999999999996 3.5999999999999974
    vertex 0.0 18.499999999999996 4.599999999999997
  endloop
endfacet
facet normal 0.0 -1.0 0.0
  outer loop
    vertex 0.0 18.499999999999996 4.599999999999997
    vertex 32.5 18.499999999999996 3.5999999999999974
    vertex 32.5 18.499999999999996 4.599999999999997
  endloop
endfacet
facet normal 0.0 1.0 1.174986034394957e-16
  outer loop
    vertex 3.0 15.500000000000002 1.999999999999999
    vertex 31.5 15.500000000000002 0.5999999999999985
    vertex 3.0 15.500000000000002 0.5999999999999985
  endloop
endfacet
facet normal 0.0 1.0 1.174986034394957e-16
  outer loop
    vertex 31.5 15.500000000000002 0.5999999999999985
    vertex 3.0 15.500000000000002 1.999999999999999
    vertex 31.5 15.500000000000002 1.999999999999999
  endloop
endfacet
facet normal -0.0 -0.0 -1.0
  outer loop
    vertex 34.5 1.5 3.5999999999999974
    vertex 32.5 0.0 3.5999999999999974
    vertex 32.5 1.5 3.5999999999999974
  endloop
endfacet
facet normal -0.0 -0.0 -1.0
  outer loop
    vertex 32.5 0.0 3.5999999999999974
    vertex 34.5 1.5 3.5999999999999974
    vertex 34.5 0.0 3.5999999999999974
  endloop
endfacet
facet normal 0.0 0.0 -1.0
  outer loop
    vertex 11.999999999999995 29.500000000000004 -0.49999999999999994
    vertex 15.656222386623039 25.427051424419158 -0.49999999999999556
    vertex 15.600000000000003 25.0 -0.49999999999999556
  endloop
endfacet
facet normal 0.0 0.0 -1.0
  outer loop
    vertex 15.656222386623039 25.427051424419158 -0.49999999999999556
    vertex 11.999999999999995 29.500000000000004 -0.49999999999999994
    vertex 15.821058083755679 25.825 -0.49999999999999556
  endloop
endfacet
facet normal 0.0 0.0 -1.0
  outer loop
    vertex 15.821058083755679 25.825 -0.49999999999999556
    vertex 11.999999999999995 29.500000000000004 -0.49999999999999994
    vertex 16.083273811042197 26.166726188957803 -0.49999999999999556
  endloop
endfacet
facet normal 0.0 0.0 -1.0
  outer loop
    vertex 16.083273811042197 26.166726188957803 -0.49999999999999556
    vertex 11.999999999999995 29.500000000000004 -0.49999999999999994
    vertex 16.425 26.428941916244323 -0.49999999999999556
  endloop
endfacet
facet normal 0.0 0.0 -1.0
  outer loop
    vertex 16.425 26.428941916244323 -0.49999999999999556
    vertex 11.999999999999995 29.500000000000004 -0.49999999999999994
    vertex 22.500000000000014 29.500000000000004 -0.49999999999999994
  endloop
endfacet
facet normal 0.0 0.0 -1.0
  outer loop
    vertex 16.425 26.428941916244323 -0.49999999999999556
    vertex 22.500000000000014 29.500000000000004 -0.49999999999999994
    vertex 16.822948575580842 26.59377761337696 -0.49999999999999556
  endloop
endfacet
facet normal 0.0 0.0 -1.0
  outer loop
    vertex 16.822948575580842 26.59377761337696 -0.49999999999999556
    vertex 22.500000000000014 29.500000000000004 -0.49999999999999994
    vertex 17.250000000000004 26.649999999999995 -0.49999999999999556
  endloop
endfacet
facet normal 0.0 0.0 -1.0
  outer loop
    vertex 17.250000000000004 26.649999999999995 -0.49999999999999556
    vertex 22.500000000000014 29.500000000000004 -0.49999999999999994
    vertex 17.67705142441916 26.59377761337696 -0.49999999999999556
  endloop
endfacet
facet normal 0.0 0.0 -1.0
  outer loop
    vertex 17.67705142441916 26.59377761337696 -0.49999999999999556
    vertex 22.500000000000014 29.500000000000004 -0.49999999999999994
    vertex 18.075 26.428941916244323 -0.49999999999999556
  endloop
endfacet
facet normal 0.0 0.0 -1.0
  outer loop
    vertex 18.075 26.428941916244323 -0.49999999999999556
    vertex 22.500000000000014 29.500000000000004 -0.49999999999999994
    vertex 18.416726188957806 26.166726188957803 -0.49999999999999556
  endloop
endfacet
facet normal 0.0 0.0 -1.0
  outer loop
    vertex 18.416726188957806 26.166726188957803 -0.49999999999999556
    vertex 22.500000000000014 29.500000000000004 -0.49999999999999994
    vertex 18.678941916244327 25.825 -0.49999999999999556
  endloop
endfacet
facet normal 0.0 0.0 -1.0
  outer loop
    vertex 18.678941916244327 25.825 -0.49999999999999556
    vertex 22.500000000000014 29.500000000000004 -0.49999999999999994
    vertex 18.843777613376965 25.427051424419158 -0.49999999999999556
  endloop
endfacet
facet normal 0.0 0.0 -1.0
  outer loop
    vertex 18.843777613376965 25.427051424419158 -0.49999999999999556
    vertex 22.500000000000014 29.500000000000004 -0.49999999999999994
    vertex 18.900000000000002 25.0 -0.49999999999999556
  endloop
endfacet
facet normal 0.0 0.0 -1.0
  outer loop
    vertex 18.900000000000002 25.0 -0.49999999999999556
    vertex 22.500000000000014 29.500000000000004 -0.49999999999999994
    vertex 18.900000000000002 -6.500000000000002 -0.49999999999999906
  endloop
endfacet
facet normal 0.0 0.0 -1.0
  outer loop
    vertex 18.900000000000002 -6.500000000000002 -0.49999999999999906
    vertex 22.500000000000014 29.500000000000004 -0.49999999999999994
    vertex 22.50000000000001 20.499999999999993 -0.49999999999999994
  endloop
endfacet
facet normal 0.0 0.0 -1.0
  outer loop
    vertex 36.5 20.500000000000004 -0.49999999999999994
    vertex 22.50000000000001 -2.0000000000000018 -0.49999999999999994
    vertex 22.50000000000001 20.499999999999993 -0.49999999999999994
  endloop
endfacet
facet normal 0.0 0.0 -1.0
  outer loop
    vertex 22.50000000000001 -2.0000000000000018 -0.49999999999999994
    vertex 36.5 20.500000000000004 -0.49999999999999994
    vertex 36.5 -1.9999999999999991 -0.49999999999999994
  endloop
endfacet
facet normal 0.0 0.0 -1.0
  outer loop
    vertex 11.999999999999993 20.500000000000004 -0.49999999999999994
    vertex -1.9999999999999998 -1.9999999999999991 -0.49999999999999994
    vertex -1.9999999999999998 20.500000000000004 -0.49999999999999994
  endloop
endfacet
facet normal 0.0 0.0 -1.0
  outer loop
    vertex -1.9999999999999998 -1.9999999999999991 -0.49999999999999994
    vertex 11.999999999999993 20.500000000000004 -0.49999999999999994
    vertex 11.999999999999993 -2.0000000000000004 -0.49999999999999994
  endloop
endfacet
facet normal 0.0 0.0 -1.0
  outer loop
    vertex 11.999999999999993 -2.0000000000000004 -0.49999999999999994
    vertex 11.999999999999993 20.500000000000004 -0.49999999999999994
    vertex 11.999999999999995 29.500000000000004 -0.49999999999999994
  endloop
endfacet
facet normal 0.0 0.0 -1.0
  outer loop
    vertex 11.999999999999993 -2.0000000000000004 -0.49999999999999994
    vertex 11.999999999999995 29.500000000000004 -0.49999999999999994
    vertex 11.999999999999993 -11.000000000000002 -0.5000000000000026
  endloop
endfacet
facet normal 0.0 0.0 -1.0
  outer loop
    vertex 11.999999999999993 -11.000000000000002 -0.5000000000000026
    vertex 11.999999999999995 29.500000000000004 -0.49999999999999994
    vertex 15.600000000000003 -6.500000000000002 -0.49999999999999906
  endloop
endfacet
facet normal 0.0 0.0 -1.0
  outer loop
    vertex 11.999999999999993 -11.000000000000002 -0.5000000000000026
    vertex 15.600000000000003 -6.500000000000002 -0.49999999999999906
    vertex 15.656222386623039 -6.9270514244191626 -0.49999999999999906
  endloop
endfacet
facet normal 0.0 0.0 -1.0
  outer loop
    vertex 11.999999999999993 -11.000000000000002 -0.5000000000000026
    vertex 15.656222386623039 -6.9270514244191626 -0.49999999999999906
    vertex 15.821058083755679 -7.325000000000002 -0.49999999999999944
  endloop
endfacet
facet normal 0.0 0.0 -1.0
  outer loop
    vertex 11.999999999999993 -11.000000000000002 -0.5000000000000026
    vertex 15.821058083755679 -7.325000000000002 -0.49999999999999944
    vertex 16.083273811042197 -7.666726188957806 -0.49999999999999944
  endloop
endfacet
facet normal 0.0 0.0 -1.0
  outer loop
    vertex 11.999999999999993 -11.000000000000002 -0.5000000000000026
    vertex 16.083273811042197 -7.666726188957806 -0.49999999999999944
    vertex 16.425000000000004 -7.928941916244327 -0.49999999999999944
  endloop
endfacet
facet normal 0.0 0.0 -1.0
  outer loop
    vertex 11.999999999999993 -11.000000000000002 -0.5000000000000026
    vertex 16.425000000000004 -7.928941916244327 -0.49999999999999944
    vertex 22.50000000000001 -11.000000000000002 -0.5000000000000026
  endloop
endfacet
facet normal 0.0 0.0 -1.0
  outer loop
    vertex 15.600000000000003 -6.500000000000002 -0.49999999999999906
    vertex 11.999999999999995 29.500000000000004 -0.49999999999999994
    vertex 15.600000000000003 25.0 -0.49999999999999556
  endloop
endfacet
facet normal 0.0 0.0 -1.0
  outer loop
    vertex 22.50000000000001 -11.000000000000002 -0.5000000000000026
    vertex 16.425000000000004 -7.928941916244327 -0.49999999999999944
    vertex 16.822948575580842 -8.093777613376965 -0.49999999999999944
  endloop
endfacet
facet normal 0.0 0.0 -1.0
  outer loop
    vertex 22.50000000000001 -11.000000000000002 -0.5000000000000026
    vertex 16.822948575580842 -8.093777613376965 -0.49999999999999944
    vertex 17.250000000000004 -8.150000000000002 -0.49999999999999944
  endloop
endfacet
facet normal 0.0 0.0 -1.0
  outer loop
    vertex 22.50000000000001 -11.000000000000002 -0.5000000000000026
    vertex 17.250000000000004 -8.150000000000002 -0.49999999999999944
    vertex 17.67705142441916 -8.093777613376965 -0.49999999999999944
  endloop
endfacet
facet normal 0.0 0.0 -1.0
  outer loop
    vertex 22.50000000000001 -11.000000000000002 -0.5000000000000026
    vertex 17.67705142441916 -8.093777613376965 -0.49999999999999944
    vertex 18.075000000000003 -7.928941916244325 -0.49999999999999944
  endloop
endfacet
facet normal 0.0 0.0 -1.0
  outer loop
    vertex 22.50000000000001 -11.000000000000002 -0.5000000000000026
    vertex 18.075000000000003 -7.928941916244325 -0.49999999999999944
    vertex 18.416726188957806 -7.666726188957805 -0.49999999999999944
  endloop
endfacet
facet normal 0.0 0.0 -1.0
  outer loop
    vertex 22.50000000000001 -11.000000000000002 -0.5000000000000026
    vertex 18.416726188957806 -7.666726188957805 -0.49999999999999944
    vertex 18.678941916244327 -7.325000000000002 -0.49999999999999944
  endloop
endfacet
facet normal 0.0 0.0 -1.0
  outer loop
    vertex 22.50000000000001 -11.000000000000002 -0.5000000000000026
    vertex 18.678941916244327 -7.325000000000002 -0.49999999999999944
    vertex 18.843777613376965 -6.927051424419161 -0.49999999999999906
  endloop
endfacet
facet normal 0.0 0.0 -1.0
  outer loop
    vertex 22.50000000000001 -11.000000000000002 -0.5000000000000026
    vertex 18.843777613376965 -6.927051424419161 -0.49999999999999906
    vertex 18.900000000000002 -6.500000000000002 -0.49999999999999906
  endloop
endfacet
facet normal 0.0 0.0 -1.0
  outer loop
    vertex 22.50000000000001 -11.000000000000002 -0.5000000000000026
    vertex 18.900000000000002 -6.500000000000002 -0.49999999999999906
    vertex 22.50000000000001 20.499999999999993 -0.49999999999999994
  endloop
endfacet
facet normal 0.0 0.0 -1.0
  outer loop
    vertex 22.50000000000001 -11.000000000000002 -0.5000000000000026
    vertex 22.50000000000001 20.499999999999993 -0.49999999999999994
    vertex 22.50000000000001 -2.0000000000000018 -0.49999999999999994
  endloop
endfacet
facet normal 0.0 0.0 -1.0
  outer loop
    vertex 15.656222386623039 24.57294857558084 -0.49999999999999556
    vertex 15.600000000000003 -6.500000000000002 -0.49999999999999906
    vertex 15.600000000000003 25.0 -0.49999999999999556
  endloop
endfacet
facet normal 0.0 0.0 -1.0
  outer loop
    vertex 15.600000000000003 -6.500000000000002 -0.49999999999999906
    vertex 15.656222386623039 24.57294857558084 -0.49999999999999556
    vertex 15.656222386623039 -6.0729485755808446 -0.49999999999999906
  endloop
endfacet
facet normal 0.0 0.0 -1.0
  outer loop
    vertex 15.656222386623039 -6.0729485755808446 -0.49999999999999906
    vertex 15.656222386623039 24.57294857558084 -0.49999999999999556
    vertex 15.821058083755679 24.174999999999997 -0.49999999999999556
  endloop
endfacet
facet normal 0.0 0.0 -1.0
  outer loop
    vertex 15.656222386623039 -6.0729485755808446 -0.49999999999999906
    vertex 15.821058083755679 24.174999999999997 -0.49999999999999556
    vertex 15.821058083755679 -5.675000000000003 -0.4999999999999987
  endloop
endfacet
facet normal 0.0 0.0 -1.0
  outer loop
    vertex 15.821058083755679 -5.675000000000003 -0.4999999999999987
    vertex 15.821058083755679 24.174999999999997 -0.49999999999999556
    vertex 16.083273811042197 23.833273811042194 -0.49999999999999556
  endloop
endfacet
facet normal 0.0 0.0 -1.0
  outer loop
    vertex 15.821058083755679 -5.675000000000003 -0.4999999999999987
    vertex 16.083273811042197 23.833273811042194 -0.49999999999999556
    vertex 16.083273811042197 -5.333273811042201 -0.4999999999999987
  endloop
endfacet
facet normal 0.0 0.0 -1.0
  outer loop
    vertex 16.083273811042197 -5.333273811042201 -0.4999999999999987
    vertex 16.083273811042197 23.833273811042194 -0.49999999999999556
    vertex 16.425000000000004 23.571058083755673 -0.49999999999999556
  endloop
endfacet
facet normal 0.0 0.0 -1.0
  outer loop
    vertex 16.083273811042197 -5.333273811042201 -0.4999999999999987
    vertex 16.425000000000004 23.571058083755673 -0.49999999999999556
    vertex 16.425 -5.0710580837556805 -0.4999999999999987
  endloop
endfacet
facet normal 0.0 0.0 -1.0
  outer loop
    vertex 16.425 -5.0710580837556805 -0.4999999999999987
    vertex 16.425000000000004 23.571058083755673 -0.49999999999999556
    vertex 16.822948575580842 -4.906222386623042 -0.4999999999999987
  endloop
endfacet
facet normal 0.0 0.0 -1.0
  outer loop
    vertex 16.822948575580842 -4.906222386623042 -0.4999999999999987
    vertex 16.425000000000004 23.571058083755673 -0.49999999999999556
    vertex 16.822948575580842 23.406222386623035 -0.49999999999999556
  endloop
endfacet
facet normal 0.0 0.0 -1.0
  outer loop
    vertex 16.822948575580842 -4.906222386623042 -0.4999999999999987
    vertex 16.822948575580842 23.406222386623035 -0.49999999999999556
    vertex 17.250000000000004 -4.850000000000004 -0.4999999999999987
  endloop
endfacet
facet normal 0.0 0.0 -1.0
  outer loop
    vertex 17.250000000000004 -4.850000000000004 -0.4999999999999987
    vertex 16.822948575580842 23.406222386623035 -0.49999999999999556
    vertex 17.250000000000004 23.349999999999998 -0.49999999999999556
  endloop
endfacet
facet normal 0.0 0.0 -1.0
  outer loop
    vertex 17.250000000000004 -4.850000000000004 -0.4999999999999987
    vertex 17.250000000000004 23.349999999999998 -0.49999999999999556
    vertex 17.677051424419165 23.406222386623035 -0.49999999999999556
  endloop
endfacet
facet normal 0.0 0.0 -1.0
  outer loop
    vertex 17.250000000000004 -4.850000000000004 -0.4999999999999987
    vertex 17.677051424419165 23.406222386623035 -0.49999999999999556
    vertex 17.67705142441916 -4.906222386623041 -0.4999999999999987
  endloop
endfacet
facet normal 0.0 0.0 -1.0
  outer loop
    vertex 17.67705142441916 -4.906222386623041 -0.4999999999999987
    vertex 17.677051424419165 23.406222386623035 -0.49999999999999556
    vertex 18.075 -5.07105808375568 -0.4999999999999987
  endloop
endfacet
facet normal 0.0 0.0 -1.0
  outer loop
    vertex 18.075 -5.07105808375568 -0.4999999999999987
    vertex 17.677051424419165 23.406222386623035 -0.49999999999999556
    vertex 18.075000000000003 23.571058083755673 -0.49999999999999556
  endloop
endfacet
facet normal 0.0 0.0 -1.0
  outer loop
    vertex 18.075 -5.07105808375568 -0.4999999999999987
    vertex 18.075000000000003 23.571058083755673 -0.49999999999999556
    vertex 18.416726188957806 -5.333273811042201 -0.4999999999999987
  endloop
endfacet
facet normal 0.0 0.0 -1.0
  outer loop
    vertex 18.416726188957806 -5.333273811042201 -0.4999999999999987
    vertex 18.075000000000003 23.571058083755673 -0.49999999999999556
    vertex 18.416726188957806 23.833273811042194 -0.49999999999999556
  endloop
endfacet
facet normal 0.0 0.0 -1.0
  outer loop
    vertex 18.416726188957806 -5.333273811042201 -0.4999999999999987
    vertex 18.416726188957806 23.833273811042194 -0.49999999999999556
    vertex 18.678941916244327 24.175 -0.49999999999999556
  endloop
endfacet
facet normal 0.0 0.0 -1.0
  outer loop
    vertex 18.416726188957806 -5.333273811042201 -0.4999999999999987
    vertex 18.678941916244327 24.175 -0.49999999999999556
    vertex 18.678941916244327 -5.675000000000003 -0.4999999999999987
  endloop
endfacet
facet normal 0.0 0.0 -1.0
  outer loop
    vertex 18.678941916244327 -5.675000000000003 -0.4999999999999987
    vertex 18.678941916244327 24.175 -0.49999999999999556
    vertex 18.843777613376965 24.572948575580842 -0.49999999999999556
  endloop
endfacet
facet normal 0.0 0.0 -1.0
  outer loop
    vertex 18.678941916244327 -5.675000000000003 -0.4999999999999987
    vertex 18.843777613376965 24.572948575580842 -0.49999999999999556
    vertex 18.843777613376965 -6.072948575580843 -0.49999999999999906
  endloop
endfacet
facet normal 0.0 0.0 -1.0
  outer loop
    vertex 18.843777613376965 -6.072948575580843 -0.49999999999999906
    vertex 18.843777613376965 24.572948575580842 -0.49999999999999556
    vertex 18.900000000000002 25.0 -0.49999999999999556
  endloop
endfacet
facet normal 0.0 0.0 -1.0
  outer loop
    vertex 18.843777613376965 -6.072948575580843 -0.49999999999999906
    vertex 18.900000000000002 25.0 -0.49999999999999556
    vertex 18.900000000000002 -6.500000000000002 -0.49999999999999906
  endloop
endfacet
facet normal 1.0 0.0 0.0
  outer loop
    vertex 0.0 18.499999999999996 0.5999999999999971
    vertex 0.0 0.0 4.599999999999997
    vertex 0.0 0.0 0.5999999999999971
  endloop
endfacet
facet normal 1.0 0.0 0.0
  outer loop
    vertex 0.0 0.0 4.599999999999997
    vertex 0.0 18.499999999999996 0.5999999999999971
    vertex 0.0 8.13 3.5999999999999974
  endloop
endfacet
facet normal 1.0 0.0 0.0
  outer loop
    vertex 0.0 8.13 3.5999999999999974
    vertex 0.0 18.499999999999996 0.5999999999999971
    vertex 0.0 10.100000000000001 3.5999999999999974
  endloop
endfacet
facet normal 1.0 0.0 0.0
  outer loop
    vertex 0.0 10.100000000000001 3.5999999999999974
    vertex 0.0 18.499999999999996 0.5999999999999971
    vertex 0.0 10.100000000000001 4.599999999999997
  endloop
endfacet
facet normal 1.0 0.0 0.0
  outer loop
    vertex 0.0 10.100000000000001 4.599999999999997
    vertex 0.0 18.499999999999996 0.5999999999999971
    vertex 0.0 18.499999999999996 4.599999999999997
  endloop
endfacet
facet normal 1.0 0.0 0.0
  outer loop
    vertex 0.0 8.13 4.599999999999997
    vertex 0.0 0.0 4.599999999999997
    vertex 0.0 8.13 3.5999999999999974
  endloop
endfacet
facet normal 0.0 -1.0 0.0
  outer loop
    vertex 34.5 17.0 4.599999999999997
    vertex 32.5 17.0 3.5999999999999974
    vertex 34.5 17.0 3.5999999999999974
  endloop
endfacet
facet normal 0.0 -1.0 0.0
  outer loop
    vertex 32.5 17.0 3.5999999999999974
    vertex 34.5 17.0 4.599999999999997
    vertex 32.5 17.0 4.599999999999997
  endloop
endfacet
facet normal -1.0 0.0 0.0
  outer loop
    vertex 32.5 1.5 4.599999999999997
    vertex 32.5 0.0 3.5999999999999974
    vertex 32.5 0.0 4.599999999999997
  endloop
endfacet
facet normal -1.0 0.0 0.0
  outer loop
    vertex 32.5 0.0 3.5999999999999974
    vertex 32.5 1.5 4.599999999999997
    vertex 32.5 1.5 3.5999999999999974
  endloop
endfacet
facet normal 1.0 0.0 0.0
  outer loop
    vertex 36.5 20.500000000000004 -0.49999999999999994
    vertex 36.5 -1.9999999999999991 4.599999999999997
    vertex 36.5 -1.9999999999999991 -0.49999999999999994
  endloop
endfacet
facet normal 1.0 0.0 0.0
  outer loop
    vertex 36.5 -1.9999999999999991 4.599999999999997
    vertex 36.5 20.500000000000004 -0.49999999999999994
    vertex 36.5 20.500000000000004 4.599999999999997
  endloop
endfacet
facet normal -1.2509785540214882e-17 -1.0 9.942506212557188e-17
  outer loop
    vertex 36.5 -1.9999999999999991 4.599999999999997
    vertex 22.50000000000001 -2.0000000000000018 -0.49999999999999994
    vertex 36.5 -1.9999999999999991 -0.49999999999999994
  endloop
endfacet
facet normal -1.2509785540214882e-17 -1.0 9.942506212557188e-17
  outer loop
    vertex 22.50000000000001 -2.0000000000000018 -0.49999999999999994
    vertex 36.5 -1.9999999999999991 4.599999999999997
    vertex 22.50000000000001 -2.0000000000000018 1.9999999999999998
  endloop
endfacet
facet normal -1.2509785540214882e-17 -1.0 9.942506212557188e-17
  outer loop
    vertex 22.50000000000001 -2.0000000000000018 1.9999999999999998
    vertex 36.5 -1.9999999999999991 4.599999999999997
    vertex 11.999999999999993 -2.0000000000000004 1.9999999999999998
  endloop
endfacet
facet normal -1.2509785540214882e-17 -1.0 9.942506212557188e-17
  outer loop
    vertex 11.999999999999993 -2.0000000000000004 1.9999999999999998
    vertex -1.9999999999999998 -1.9999999999999991 -0.49999999999999994
    vertex 11.999999999999993 -2.0000000000000004 -0.49999999999999994
  endloop
endfacet
facet normal -1.2509785540214882e-17 -1.0 9.942506212557188e-17
  outer loop
    vertex -1.9999999999999998 -1.9999999999999991 -0.49999999999999994
    vertex 11.999999999999993 -2.0000000000000004 1.9999999999999998
    vertex -1.9999999999999998 -1.9999999999999991 4.599999999999997
  endloop
endfacet
facet normal -1.2509785540214882e-17 -1.0 9.942506212557188e-17
  outer loop
    vertex -1.9999999999999998 -1.9999999999999991 4.599999999999997
    vertex 11.999999999999993 -2.0000000000000004 1.9999999999999998
    vertex 36.5 -1.9999999999999991 4.599999999999997
  endloop
endfacet
facet normal 0.0 1.0 0.0
  outer loop
    vertex 0.0 0.0 4.599999999999997
    vertex 34.5 0.0 0.5999999999999971
    vertex 0.0 0.0 0.5999999999999971
  endloop
endfacet
facet normal 0.0 1.0 0.0
  outer loop
    vertex 34.5 0.0 0.5999999999999971
    vertex 0.0 0.0 4.599999999999997
    vertex 32.5 0.0 3.5999999999999974
  endloop
endfacet
facet normal 0.0 1.0 0.0
  outer loop
    vertex 32.5 0.0 3.5999999999999974
    vertex 0.0 0.0 4.599999999999997
    vertex 32.5 0.0 4.599999999999997
  endloop
endfacet
facet normal 0.0 1.0 0.0
  outer loop
    vertex 34.5 0.0 3.5999999999999974
    vertex 34.5 0.0 0.5999999999999971
    vertex 32.5 0.0 3.5999999999999974
  endloop
endfacet
facet normal 0.0 0.0 1.0
  outer loop
    vertex 11.999999999999993 20.500000000000004 1.9999999999999998
    vertex 15.821058083755679 24.174999999999997 1.9999999999999998
    vertex 11.999999999999995 29.500000000000004 1.9999999999999998
  endloop
endfacet
facet normal 0.0 0.0 1.0
  outer loop
    vertex 15.821058083755679 24.174999999999997 1.9999999999999998
    vertex 11.999999999999993 20.500000000000004 1.9999999999999998
    vertex 16.083273811042197 23.833273811042194 1.9999999999999998
  endloop
endfacet
facet normal 0.0 0.0 1.0
  outer loop
    vertex 16.083273811042197 23.833273811042194 1.9999999999999998
    vertex 11.999999999999993 20.500000000000004 1.9999999999999998
    vertex 16.425000000000004 23.571058083755673 1.9999999999999998
  endloop
endfacet
facet normal 0.0 0.0 1.0
  outer loop
    vertex 16.425000000000004 23.571058083755673 1.9999999999999998
    vertex 11.999999999999993 20.500000000000004 1.9999999999999998
    vertex 22.50000000000001 20.499999999999993 1.9999999999999998
  endloop
endfacet
facet normal 0.0 0.0 1.0
  outer loop
    vertex 11.999999999999995 29.500000000000004 1.9999999999999998
    vertex 15.821058083755679 24.174999999999997 1.9999999999999998
    vertex 15.656222386623039 24.57294857558084 1.9999999999999998
  endloop
endfacet
facet normal 0.0 0.0 1.0
  outer loop
    vertex 11.999999999999995 29.500000000000004 1.9999999999999998
    vertex 15.656222386623039 24.57294857558084 1.9999999999999998
    vertex 15.600000000000003 25.0 1.9999999999999998
  endloop
endfacet
facet normal 0.0 0.0 1.0
  outer loop
    vertex 16.425000000000004 23.571058083755673 1.9999999999999998
    vertex 22.50000000000001 20.499999999999993 1.9999999999999998
    vertex 16.822948575580842 23.406222386623035 1.9999999999999998
  endloop
endfacet
facet normal 0.0 0.0 1.0
  outer loop
    vertex 16.822948575580842 23.406222386623035 1.9999999999999998
    vertex 22.50000000000001 20.499999999999993 1.9999999999999998
    vertex 17.250000000000004 23.349999999999998 1.9999999999999998
  endloop
endfacet
facet normal 0.0 0.0 1.0
  outer loop
    vertex 17.250000000000004 23.349999999999998 1.9999999999999998
    vertex 22.50000000000001 20.499999999999993 1.9999999999999998
    vertex 17.677051424419165 23.406222386623035 1.9999999999999998
  endloop
endfacet
facet normal 0.0 0.0 1.0
  outer loop
    vertex 17.677051424419165 23.406222386623035 1.9999999999999998
    vertex 22.50000000000001 20.499999999999993 1.9999999999999998
    vertex 18.075000000000003 23.571058083755673 1.9999999999999998
  endloop
endfacet
facet normal 0.0 0.0 1.0
  outer loop
    vertex 18.075000000000003 23.571058083755673 1.9999999999999998
    vertex 22.50000000000001 20.499999999999993 1.9999999999999998
    vertex 18.416726188957806 23.833273811042194 1.9999999999999998
  endloop
endfacet
facet normal 0.0 0.0 1.0
  outer loop
    vertex 18.416726188957806 23.833273811042194 1.9999999999999998
    vertex 22.50000000000001 20.499999999999993 1.9999999999999998
    vertex 18.678941916244327 24.175 1.9999999999999998
  endloop
endfacet
facet normal 0.0 0.0 1.0
  outer loop
    vertex 18.678941916244327 24.175 1.9999999999999998
    vertex 22.50000000000001 20.499999999999993 1.9999999999999998
    vertex 18.843777613376965 24.572948575580842 1.9999999999999998
  endloop
endfacet
facet normal 0.0 0.0 1.0
  outer loop
    vertex 18.843777613376965 24.572948575580842 1.9999999999999998
    vertex 22.50000000000001 20.499999999999993 1.9999999999999998
    vertex 18.900000000000002 25.0 1.9999999999999998
  endloop
endfacet
facet normal 0.0 0.0 1.0
  outer loop
    vertex 11.999999999999995 29.500000000000004 1.9999999999999998
    vertex 16.425 26.428941916244323 1.9999999999999998
    vertex 22.500000000000014 29.500000000000004 1.9999999999999998
  endloop
endfacet
facet normal 0.0 0.0 1.0
  outer loop
    vertex 16.425 26.428941916244323 1.9999999999999998
    vertex 11.999999999999995 29.500000000000004 1.9999999999999998
    vertex 16.083273811042197 26.166726188957803 1.9999999999999998
  endloop
endfacet
facet normal 0.0 0.0 1.0
  outer loop
    vertex 16.083273811042197 26.166726188957803 1.9999999999999998
    vertex 11.999999999999995 29.500000000000004 1.9999999999999998
    vertex 15.821058083755679 25.825 1.9999999999999998
  endloop
endfacet
facet normal 0.0 0.0 1.0
  outer loop
    vertex 15.821058083755679 25.825 1.9999999999999998
    vertex 11.999999999999995 29.500000000000004 1.9999999999999998
    vertex 15.656222386623039 25.427051424419158 1.9999999999999998
  endloop
endfacet
facet normal 0.0 0.0 1.0
  outer loop
    vertex 15.656222386623039 25.427051424419158 1.9999999999999998
    vertex 11.999999999999995 29.500000000000004 1.9999999999999998
    vertex 15.600000000000003 25.0 1.9999999999999998
  endloop
endfacet
facet normal 0.0 0.0 1.0
  outer loop
    vertex 22.500000000000014 29.500000000000004 1.9999999999999998
    vertex 16.425 26.428941916244323 1.9999999999999998
    vertex 16.822948575580842 26.59377761337696 1.9999999999999998
  endloop
endfacet
facet normal 0.0 0.0 1.0
  outer loop
    vertex 22.500000000000014 29.500000000000004 1.9999999999999998
    vertex 16.822948575580842 26.59377761337696 1.9999999999999998
    vertex 17.250000000000004 26.649999999999995 1.9999999999999998
  endloop
endfacet
facet normal 0.0 0.0 1.0
  outer loop
    vertex 22.500000000000014 29.500000000000004 1.9999999999999998
    vertex 17.250000000000004 26.649999999999995 1.9999999999999998
    vertex 17.67705142441916 26.59377761337696 1.9999999999999998
  endloop
endfacet
facet normal 0.0 0.0 1.0
  outer loop
    vertex 22.500000000000014 29.500000000000004 1.9999999999999998
    vertex 17.67705142441916 26.59377761337696 1.9999999999999998
    vertex 18.075 26.428941916244323 1.9999999999999998
  endloop
endfacet
facet normal 0.0 0.0 1.0
  outer loop
    vertex 22.500000000000014 29.500000000000004 1.9999999999999998
    vertex 18.075 26.428941916244323 1.9999999999999998
    vertex 18.416726188957806 26.166726188957803 1.9999999999999998
  endloop
endfacet
facet normal 0.0 0.0 1.0
  outer loop
    vertex 22.500000000000014 29.500000000000004 1.9999999999999998
    vertex 18.416726188957806 26.166726188957803 1.9999999999999998
    vertex 18.678941916244327 25.825 1.9999999999999998
  endloop
endfacet
facet normal 0.0 0.0 1.0
  outer loop
    vertex 22.500000000000014 29.500000000000004 1.9999999999999998
    vertex 18.678941916244327 25.825 1.9999999999999998
    vertex 18.843777613376965 25.427051424419158 1.9999999999999998
  endloop
endfacet
facet normal 0.0 0.0 1.0
  outer loop
    vertex 22.500000000000014 29.500000000000004 1.9999999999999998
    vertex 18.843777613376965 25.427051424419158 1.9999999999999998
    vertex 18.900000000000002 25.0 1.9999999999999998
  endloop
endfacet
facet normal 0.0 0.0 1.0
  outer loop
    vertex 22.500000000000014 29.500000000000004 1.9999999999999998
    vertex 18.900000000000002 25.0 1.9999999999999998
    vertex 22.50000000000001 20.499999999999993 1.9999999999999998
  endloop
endfacet
facet normal 0.0 0.0 1.0
  outer loop
    vertex 0.0 0.0 0.5999999999999971
    vertex 3.0 5.499999999999998 0.5999999999999975
    vertex 0.0 18.499999999999996 0.5999999999999971
  endloop
endfacet
facet normal 0.0 0.0 1.0
  outer loop
    vertex 3.0 5.499999999999998 0.5999999999999975
    vertex 0.0 0.0 0.5999999999999971
    vertex 34.5 0.0 0.5999999999999971
  endloop
endfacet
facet normal 0.0 0.0 1.0
  outer loop
    vertex 3.0 5.499999999999998 0.5999999999999975
    vertex 34.5 0.0 0.5999999999999971
    vertex 31.5 5.499999999999998 0.5999999999999975
  endloop
endfacet
facet normal 0.0 0.0 1.0
  outer loop
    vertex 31.5 5.499999999999998 0.5999999999999975
    vertex 34.5 0.0 0.5999999999999971
    vertex 31.5 15.500000000000002 0.5999999999999985
  endloop
endfacet
facet normal 0.0 0.0 1.0
  outer loop
    vertex 0.0 18.499999999999996 0.5999999999999971
    vertex 3.0 15.500000000000002 0.5999999999999985
    vertex 34.5 18.499999999999996 0.5999999999999971
  endloop
endfacet
facet normal 0.0 0.0 1.0
  outer loop
    vertex 3.0 15.500000000000002 0.5999999999999985
    vertex 0.0 18.499999999999996 0.5999999999999971
    vertex 3.0 5.499999999999998 0.5999999999999975
  endloop
endfacet
facet normal 0.0 0.0 1.0
  outer loop
    vertex 34.5 18.499999999999996 0.5999999999999971
    vertex 3.0 15.500000000000002 0.5999999999999985
    vertex 31.5 15.500000000000002 0.5999999999999985
  endloop
endfacet
facet normal 0.0 0.0 1.0
  outer loop
    vertex 34.5 18.499999999999996 0.5999999999999971
    vertex 31.5 15.500000000000002 0.5999999999999985
    vertex 34.5 0.0 0.5999999999999971
  endloop
endfacet
facet normal 0.0 0.0 -1.0
  outer loop
    vertex 1.9999999999999998 10.100000000000001 3.5999999999999974
    vertex 0.0 8.13 3.5999999999999974
    vertex 0.0 10.100000000000001 3.5999999999999974
  endloop
endfacet
facet normal 0.0 0.0 -1.0
  outer loop
    vertex 0.0 8.13 3.5999999999999974
    vertex 1.9999999999999998 10.100000000000001 3.5999999999999974
    vertex 1.9999999999999998 8.13 3.5999999999999974
  endloop
endfacet
facet normal -1.0 0.0 0.0
  outer loop
    vertex 3.0 15.500000000000002 1.999999999999999
    vertex 3.0 5.499999999999998 0.5999999999999975
    vertex 3.0 5.499999999999998 1.9999999999999973
  endloop
endfacet
facet normal -1.0 0.0 0.0
  outer loop
    vertex 3.0 5.499999999999998 0.5999999999999975
    vertex 3.0 15.500000000000002 1.999999999999999
    vertex 3.0 15.500000000000002 0.5999999999999985
  endloop
endfacet
facet normal -3.022377477375086e-32 -2.6437185773886536e-16 1.0
  outer loop
    vertex 11.999999999999993 -11.000000000000002 1.9999999999999973
    vertex 15.821058083755679 -7.325000000000002 1.999999999999998
    vertex 11.999999999999993 -2.0000000000000004 1.9999999999999998
  endloop
endfacet
facet normal -3.022377477375086e-32 -2.6437185773886536e-16 1.0
  outer loop
    vertex 15.821058083755679 -7.325000000000002 1.999999999999998
    vertex 11.999999999999993 -11.000000000000002 1.9999999999999973
    vertex 16.083273811042197 -7.666726188957806 1.999999999999998
  endloop
endfacet
facet normal -3.022377477375086e-32 -2.6437185773886536e-16 1.0
  outer loop
    vertex 16.083273811042197 -7.666726188957806 1.999999999999998
    vertex 11.999999999999993 -11.000000000000002 1.9999999999999973
    vertex 16.425000000000004 -7.928941916244327 1.999999999999998
  endloop
endfacet
facet normal -3.022377477375086e-32 -2.6437185773886536e-16 1.0
  outer loop
    vertex 16.425000000000004 -7.928941916244327 1.999999999999998
    vertex 11.999999999999993 -11.000000000000002 1.9999999999999973
    vertex 22.50000000000001 -11.000000000000005 1.9999999999999973
  endloop
endfacet
facet normal -3.022377477375086e-32 -2.6437185773886536e-16 1.0
  outer loop
    vertex 11.999999999999993 -2.0000000000000004 1.9999999999999998
    vertex 15.821058083755679 -7.325000000000002 1.999999999999998
    vertex 15.656222386623039 -6.9270514244191626 1.9999999999999984
  endloop
endfacet
facet normal -3.022377477375086e-32 -2.6437185773886536e-16 1.0
  outer loop
    vertex 11.999999999999993 -2.0000000000000004 1.9999999999999998
    vertex 15.656222386623039 -6.9270514244191626 1.9999999999999984
    vertex 15.600000000000003 -6.500000000000002 1.9999999999999984
  endloop
endfacet
facet normal -3.022377477375086e-32 -2.6437185773886536e-16 1.0
  outer loop
    vertex 16.425000000000004 -7.928941916244327 1.999999999999998
    vertex 22.50000000000001 -11.000000000000005 1.9999999999999973
    vertex 16.822948575580842 -8.093777613376965 1.999999999999998
  endloop
endfacet
facet normal -3.022377477375086e-32 -2.6437185773886536e-16 1.0
  outer loop
    vertex 16.822948575580842 -8.093777613376965 1.999999999999998
    vertex 22.50000000000001 -11.000000000000005 1.9999999999999973
    vertex 17.250000000000004 -8.150000000000002 1.999999999999998
  endloop
endfacet
facet normal -3.022377477375086e-32 -2.6437185773886536e-16 1.0
  outer loop
    vertex 17.250000000000004 -8.150000000000002 1.999999999999998
    vertex 22.50000000000001 -11.000000000000005 1.9999999999999973
    vertex 17.67705142441916 -8.093777613376965 1.999999999999998
  endloop
endfacet
facet normal -3.022377477375086e-32 -2.6437185773886536e-16 1.0
  outer loop
    vertex 17.67705142441916 -8.093777613376965 1.999999999999998
    vertex 22.50000000000001 -11.000000000000005 1.9999999999999973
    vertex 18.075000000000003 -7.928941916244325 1.999999999999998
  endloop
endfacet
facet normal -3.022377477375086e-32 -2.6437185773886536e-16 1.0
  outer loop
    vertex 18.075000000000003 -7.928941916244325 1.999999999999998
    vertex 22.50000000000001 -11.000000000000005 1.9999999999999973
    vertex 18.416726188957806 -7.666726188957805 1.999999999999998
  endloop
endfacet
facet normal -3.022377477375086e-32 -2.6437185773886536e-16 1.0
  outer loop
    vertex 18.416726188957806 -7.666726188957805 1.999999999999998
    vertex 22.50000000000001 -11.000000000000005 1.9999999999999973
    vertex 18.678941916244327 -7.325000000000002 1.999999999999998
  endloop
endfacet
facet normal -3.022377477375086e-32 -2.6437185773886536e-16 1.0
  outer loop
    vertex 18.678941916244327 -7.325000000000002 1.999999999999998
    vertex 22.50000000000001 -11.000000000000005 1.9999999999999973
    vertex 18.843777613376965 -6.927051424419161 1.9999999999999984
  endloop
endfacet
facet normal -3.022377477375086e-32 -2.6437185773886536e-16 1.0
  outer loop
    vertex 18.843777613376965 -6.927051424419161 1.9999999999999984
    vertex 22.50000000000001 -11.000000000000005 1.9999999999999973
    vertex 18.900000000000002 -6.500000000000002 1.9999999999999984
  endloop
endfacet
facet normal -3.022377477375086e-32 -2.6437185773886536e-16 1.0
  outer loop
    vertex 11.999999999999993 -2.0000000000000004 1.9999999999999998
    vertex 16.425 -5.07105808375568 1.999999999999999
    vertex 22.50000000000001 -2.0000000000000018 1.9999999999999998
  endloop
endfacet
facet normal -3.022377477375086e-32 -2.6437185773886536e-16 1.0
  outer loop
    vertex 16.425 -5.07105808375568 1.999999999999999
    vertex 11.999999999999993 -2.0000000000000004 1.9999999999999998
    vertex 16.083273811042197 -5.3332738110422 1.999999999999999
  endloop
endfacet
facet normal -3.022377477375086e-32 -2.6437185773886536e-16 1.0
  outer loop
    vertex 16.083273811042197 -5.3332738110422 1.999999999999999
    vertex 11.999999999999993 -2.0000000000000004 1.9999999999999998
    vertex 15.821058083755679 -5.6750000000000025 1.999999999999999
  endloop
endfacet
facet normal -3.022377477375086e-32 -2.6437185773886536e-16 1.0
  outer loop
    vertex 15.821058083755679 -5.6750000000000025 1.999999999999999
    vertex 11.999999999999993 -2.0000000000000004 1.9999999999999998
    vertex 15.656222386623039 -6.072948575580844 1.9999999999999984
  endloop
endfacet
facet normal -3.022377477375086e-32 -2.6437185773886536e-16 1.0
  outer loop
    vertex 15.656222386623039 -6.072948575580844 1.9999999999999984
    vertex 11.999999999999993 -2.0000000000000004 1.9999999999999998
    vertex 15.600000000000003 -6.500000000000002 1.9999999999999984
  endloop
endfacet
facet normal -3.022377477375086e-32 -2.6437185773886536e-16 1.0
  outer loop
    vertex 22.50000000000001 -2.0000000000000018 1.9999999999999998
    vertex 16.425 -5.07105808375568 1.999999999999999
    vertex 16.822948575580842 -4.90622238662304 1.999999999999999
  endloop
endfacet
facet normal -3.022377477375086e-32 -2.6437185773886536e-16 1.0
  outer loop
    vertex 22.50000000000001 -2.0000000000000018 1.9999999999999998
    vertex 16.822948575580842 -4.90622238662304 1.999999999999999
    vertex 17.250000000000004 -4.850000000000002 1.999999999999999
  endloop
endfacet
facet normal -3.022377477375086e-32 -2.6437185773886536e-16 1.0
  outer loop
    vertex 22.50000000000001 -2.0000000000000018 1.9999999999999998
    vertex 17.250000000000004 -4.850000000000002 1.999999999999999
    vertex 17.67705142441916 -4.90622238662304 1.999999999999999
  endloop
endfacet
facet normal -3.022377477375086e-32 -2.6437185773886536e-16 1.0
  outer loop
    vertex 22.50000000000001 -2.0000000000000018 1.9999999999999998
    vertex 17.67705142441916 -4.90622238662304 1.999999999999999
    vertex 18.075 -5.071058083755678 1.999999999999999
  endloop
endfacet
facet normal -3.022377477375086e-32 -2.6437185773886536e-16 1.0
  outer loop
    vertex 22.50000000000001 -2.0000000000000018 1.9999999999999998
    vertex 18.075 -5.071058083755678 1.999999999999999
    vertex 18.416726188957806 -5.333273811042199 1.999999999999999
  endloop
endfacet
facet normal -3.022377477375086e-32 -2.6437185773886536e-16 1.0
  outer loop
    vertex 22.50000000000001 -2.0000000000000018 1.9999999999999998
    vertex 18.416726188957806 -5.333273811042199 1.999999999999999
    vertex 18.678941916244327 -5.675000000000002 1.999999999999999
  endloop
endfacet
facet normal -3.022377477375086e-32 -2.6437185773886536e-16 1.0
  outer loop
    vertex 22.50000000000001 -2.0000000000000018 1.9999999999999998
    vertex 18.678941916244327 -5.675000000000002 1.999999999999999
    vertex 18.843777613376965 -6.072948575580842 1.9999999999999984
  endloop
endfacet
facet normal -3.022377477375086e-32 -2.6437185773886536e-16 1.0
  outer loop
    vertex 22.50000000000001 -2.0000000000000018 1.9999999999999998
    vertex 18.843777613376965 -6.072948575580842 1.9999999999999984
    vertex 18.900000000000002 -6.500000000000002 1.9999999999999984
  endloop
endfacet
facet normal -3.022377477375086e-32 -2.6437185773886536e-16 1.0
  outer loop
    vertex 22.50000000000001 -2.0000000000000018 1.9999999999999998
    vertex 18.900000000000002 -6.500000000000002 1.9999999999999984
    vertex 22.50000000000001 -11.000000000000005 1.9999999999999973
  endloop
endfacet
facet normal 0.0 -1.0 0.0
  outer loop
    vertex 0.9999999999999999 8.13 4.599999999999997
    vertex 0.0 8.13 3.5999999999999974
    vertex 1.9999999999999998 8.13 3.5999999999999974
  endloop
endfacet
facet normal 0.0 -1.0 0.0
  outer loop
    vertex 0.0 8.13 3.5999999999999974
    vertex 0.9999999999999999 8.13 4.599999999999997
    vertex 0.0 8.13 4.599999999999997
  endloop
endfacet
facet normal 0.0 1.0 0.0
  outer loop
    vertex 0.0 10.100000000000001 4.599999999999997
    vertex 1.9999999999999998 10.100000000000001 3.5999999999999974
    vertex 0.0 10.100000000000001 3.5999999999999974
  endloop
endfacet
facet normal 0.0 1.0 0.0
  outer loop
    vertex 1.9999999999999998 10.100000000000001 3.5999999999999974
    vertex 0.0 10.100000000000001 4.599999999999997
    vertex 0.9999999999999999 10.100000000000001 4.599999999999997
  endloop
endfacet
facet normal 0.0 -1.0 -1.174986034394957e-16
  outer loop
    vertex 31.5 5.499999999999998 1.9999999999999973
    vertex 3.0 5.499999999999998 0.5999999999999975
    vertex 31.5 5.499999999999998 0.5999999999999975
  endloop
endfacet
facet normal 0.0 -1.0 -1.174986034394957e-16
  outer loop
    vertex 3.0 5.499999999999998 0.5999999999999975
    vertex 31.5 5.499999999999998 1.9999999999999973
    vertex 3.0 5.499999999999998 1.9999999999999973
  endloop
endfacet
facet normal 0.0 -1.174986034394957e-16 1.0
  outer loop
    vertex 31.5 5.499999999999998 1.9999999999999973
    vertex 3.0 15.500000000000002 1.999999999999999
    vertex 3.0 5.499999999999998 1.9999999999999973
  endloop
endfacet
facet normal 0.0 -1.174986034394957e-16 1.0
  outer loop
    vertex 3.0 15.500000000000002 1.999999999999999
    vertex 31.5 5.499999999999998 1.9999999999999973
    vertex 31.5 15.500000000000002 1.999999999999999
  endloop
endfacet
facet normal -6.66883965467408e-17 -1.0 -2.6437185773886536e-16
  outer loop
    vertex 22.50000000000001 -11.000000000000005 1.9999999999999973
    vertex 11.999999999999993 -11.000000000000002 -0.5000000000000026
    vertex 22.50000000000001 -11.000000000000002 -0.5000000000000026
  endloop
endfacet
facet normal -6.66883965467408e-17 -1.0 -2.6437185773886536e-16
  outer loop
    vertex 11.999999999999993 -11.000000000000002 -0.5000000000000026
    vertex 22.50000000000001 -11.000000000000005 1.9999999999999973
    vertex 11.999999999999993 -11.000000000000002 1.9999999999999973
  endloop
endfacet
facet normal -1.0 6.66883965467408e-17 -1.1753690189792003e-32
  outer loop
    vertex 11.999999999999993 -2.0000000000000004 1.9999999999999998
    vertex 11.999999999999993 -11.000000000000002 -0.5000000000000026
    vertex 11.999999999999993 -11.000000000000002 1.9999999999999973
  endloop
endfacet
facet normal -1.0 6.66883965467408e-17 -1.1753690189792003e-32
  outer loop
    vertex 11.999999999999993 -11.000000000000002 -0.5000000000000026
    vertex 11.999999999999993 -2.0000000000000004 1.9999999999999998
    vertex 11.999999999999993 -2.0000000000000004 -0.49999999999999994
  endloop
endfacet
facet normal 1.0 -6.66883965467408e-17 -4.7014760759168013e-32
  outer loop
    vertex 22.50000000000001 -11.000000000000002 -0.5000000000000026
    vertex 22.50000000000001 -2.0000000000000018 1.9999999999999998
    vertex 22.50000000000001 -11.000000000000005 1.9999999999999973
  endloop
endfacet
facet normal 1.0 -6.66883965467408e-17 -4.7014760759168013e-32
  outer loop
    vertex 22.50000000000001 -2.0000000000000018 1.9999999999999998
    vertex 22.50000000000001 -11.000000000000002 -0.5000000000000026
    vertex 22.50000000000001 -2.0000000000000018 -0.49999999999999994
  endloop
endfacet
facet normal 3.048612413565294e-16 1.0 0.0
  outer loop
    vertex 11.999999999999995 29.500000000000004 1.9999999999999998
    vertex 22.500000000000014 29.500000000000004 -0.49999999999999994
    vertex 11.999999999999995 29.500000000000004 -0.49999999999999994
  endloop
endfacet
facet normal 3.048612413565294e-16 1.0 0.0
  outer loop
    vertex 22.500000000000014 29.500000000000004 -0.49999999999999994
    vertex 11.999999999999995 29.500000000000004 1.9999999999999998
    vertex 22.500000000000014 29.500000000000004 1.9999999999999998
  endloop
endfacet
facet normal 0.13052619222005132 0.9914448613738106 2.4986475945509e-16
  outer loop
    vertex 16.822948575580842 -8.093777613376965 1.999999999999998
    vertex 17.250000000000004 -8.150000000000002 -0.49999999999999944
    vertex 16.822948575580842 -8.093777613376965 -0.49999999999999944
  endloop
endfacet
facet normal 0.13052619222005132 0.9914448613738106 2.4986475945509e-16
  outer loop
    vertex 17.250000000000004 -8.150000000000002 -0.49999999999999944
    vertex 16.822948575580842 -8.093777613376965 1.999999999999998
    vertex 17.250000000000004 -8.150000000000002 1.999999999999998
  endloop
endfacet
facet normal -0.13052619222005132 0.9914448613738106 2.4986475945509e-16
  outer loop
    vertex 17.250000000000004 -8.150000000000002 1.999999999999998
    vertex 17.67705142441916 -8.093777613376965 -0.49999999999999944
    vertex 17.250000000000004 -8.150000000000002 -0.49999999999999944
  endloop
endfacet
facet normal -0.13052619222005132 0.9914448613738106 2.4986475945509e-16
  outer loop
    vertex 17.67705142441916 -8.093777613376965 -0.49999999999999944
    vertex 17.250000000000004 -8.150000000000002 1.999999999999998
    vertex 17.67705142441916 -8.093777613376965 1.999999999999998
  endloop
endfacet
facet normal -0.3826834323650899 0.9238795325112868 2.3283688901926413e-16
  outer loop
    vertex 17.67705142441916 -8.093777613376965 1.999999999999998
    vertex 18.075000000000003 -7.928941916244325 -0.49999999999999944
    vertex 17.67705142441916 -8.093777613376965 -0.49999999999999944
  endloop
endfacet
facet normal -0.3826834323650899 0.9238795325112868 2.3283688901926413e-16
  outer loop
    vertex 18.075000000000003 -7.928941916244325 -0.49999999999999944
    vertex 17.67705142441916 -8.093777613376965 1.999999999999998
    vertex 18.075000000000003 -7.928941916244325 1.999999999999998
  endloop
endfacet
facet normal -0.6087614290087213 0.7933533402912348 1.999415693779276e-16
  outer loop
    vertex 18.075000000000003 -7.928941916244325 1.999999999999998
    vertex 18.416726188957806 -7.666726188957805 -0.49999999999999944
    vertex 18.075000000000003 -7.928941916244325 -0.49999999999999944
  endloop
endfacet
facet normal -0.6087614290087213 0.7933533402912348 1.999415693779276e-16
  outer loop
    vertex 18.416726188957806 -7.666726188957805 -0.49999999999999944
    vertex 18.075000000000003 -7.928941916244325 1.999999999999998
    vertex 18.416726188957806 -7.666726188957805 1.999999999999998
  endloop
endfacet
facet normal -0.7933533402912348 0.6087614290087213 1.5342056220255177e-16
  outer loop
    vertex 18.678941916244327 -7.325000000000002 1.999999999999998
    vertex 18.416726188957806 -7.666726188957805 -0.49999999999999944
    vertex 18.416726188957806 -7.666726188957805 1.999999999999998
  endloop
endfacet
facet normal -0.7933533402912348 0.6087614290087213 1.5342056220255177e-16
  outer loop
    vertex 18.416726188957806 -7.666726188957805 -0.49999999999999944
    vertex 18.678941916244327 -7.325000000000002 1.999999999999998
    vertex 18.678941916244327 -7.325000000000002 -0.49999999999999944
  endloop
endfacet
facet normal -0.9238795325112875 0.3826834323650883 9.644419725253802e-17
  outer loop
    vertex 18.843777613376965 -6.927051424419161 1.9999999999999984
    vertex 18.678941916244327 -7.325000000000002 -0.49999999999999944
    vertex 18.678941916244327 -7.325000000000002 1.999999999999998
  endloop
endfacet
facet normal -0.9238795325112875 0.3826834323650883 9.644419725253802e-17
  outer loop
    vertex 18.678941916244327 -7.325000000000002 -0.49999999999999944
    vertex 18.843777613376965 -6.927051424419161 1.9999999999999984
    vertex 18.843777613376965 -6.927051424419161 -0.49999999999999906
  endloop
endfacet
facet normal -0.9914448613738106 0.13052619222005132 3.289531964133644e-17
  outer loop
    vertex 18.900000000000002 -6.500000000000002 1.9999999999999984
    vertex 18.843777613376965 -6.927051424419161 -0.49999999999999906
    vertex 18.843777613376965 -6.927051424419161 1.9999999999999984
  endloop
endfacet
facet normal -0.9914448613738106 0.13052619222005132 3.289531964133644e-17
  outer loop
    vertex 18.843777613376965 -6.927051424419161 -0.49999999999999906
    vertex 18.900000000000002 -6.500000000000002 1.9999999999999984
    vertex 18.900000000000002 -6.500000000000002 -0.49999999999999906
  endloop
endfacet
facet normal -0.9914448613738106 -0.13052619222005066 -3.28953196413362e-17
  outer loop
    vertex 18.843777613376965 -6.072948575580842 1.9999999999999984
    vertex 18.900000000000002 -6.500000000000002 -0.49999999999999906
    vertex 18.900000000000002 -6.500000000000002 1.9999999999999984
  endloop
endfacet
facet normal -0.9914448613738106 -0.13052619222005066 -3.28953196413362e-17
  outer loop
    vertex 18.900000000000002 -6.500000000000002 -0.49999999999999906
    vertex 18.843777613376965 -6.072948575580842 1.9999999999999984
    vertex 18.843777613376965 -6.072948575580843 -0.49999999999999906
  endloop
endfacet
facet normal -0.9238795325112871 -0.38268343236508945 -9.644419725253826e-17
  outer loop
    vertex 18.843777613376965 -6.072948575580842 1.9999999999999984
    vertex 18.678941916244327 -5.675000000000003 -0.4999999999999987
    vertex 18.843777613376965 -6.072948575580843 -0.49999999999999906
  endloop
endfacet
facet normal -0.9238795325112871 -0.38268343236508945 -9.644419725253826e-17
  outer loop
    vertex 18.678941916244327 -5.675000000000003 -0.4999999999999987
    vertex 18.843777613376965 -6.072948575580842 1.9999999999999984
    vertex 18.678941916244327 -5.675000000000002 1.999999999999999
  endloop
endfacet
facet normal -0.7933533402912348 -0.6087614290087213 -1.5342056220255172e-16
  outer loop
    vertex 18.678941916244327 -5.675000000000002 1.999999999999999
    vertex 18.416726188957806 -5.333273811042201 -0.4999999999999987
    vertex 18.678941916244327 -5.675000000000003 -0.4999999999999987
  endloop
endfacet
facet normal -0.7933533402912348 -0.6087614290087213 -1.5342056220255172e-16
  outer loop
    vertex 18.416726188957806 -5.333273811042201 -0.4999999999999987
    vertex 18.678941916244327 -5.675000000000002 1.999999999999999
    vertex 18.416726188957806 -5.333273811042199 1.999999999999999
  endloop
endfacet
facet normal -0.6087614290087192 -0.7933533402912365 -1.9994156937792797e-16
  outer loop
    vertex 18.416726188957806 -5.333273811042199 1.999999999999999
    vertex 18.075 -5.07105808375568 -0.4999999999999987
    vertex 18.416726188957806 -5.333273811042201 -0.4999999999999987
  endloop
endfacet
facet normal -0.6087614290087192 -0.7933533402912365 -1.9994156937792797e-16
  outer loop
    vertex 18.075 -5.07105808375568 -0.4999999999999987
    vertex 18.416726188957806 -5.333273811042199 1.999999999999999
    vertex 18.075 -5.071058083755678 1.999999999999999
  endloop
endfacet
facet normal -0.38268343236508945 -0.9238795325112871 -2.3283688901926423e-16
  outer loop
    vertex 18.075 -5.071058083755678 1.999999999999999
    vertex 17.67705142441916 -4.906222386623041 -0.4999999999999987
    vertex 18.075 -5.07105808375568 -0.4999999999999987
  endloop
endfacet
facet normal -0.38268343236508945 -0.9238795325112871 -2.3283688901926423e-16
  outer loop
    vertex 17.67705142441916 -4.906222386623041 -0.4999999999999987
    vertex 18.075 -5.071058083755678 1.999999999999999
    vertex 17.67705142441916 -4.90622238662304 1.999999999999999
  endloop
endfacet
facet normal -0.13052619222005132 -0.9914448613738106 -2.4986475945509e-16
  outer loop
    vertex 17.67705142441916 -4.90622238662304 1.999999999999999
    vertex 17.250000000000004 -4.850000000000004 -0.4999999999999987
    vertex 17.67705142441916 -4.906222386623041 -0.4999999999999987
  endloop
endfacet
facet normal -0.13052619222005132 -0.9914448613738106 -2.4986475945509e-16
  outer loop
    vertex 17.250000000000004 -4.850000000000004 -0.4999999999999987
    vertex 17.67705142441916 -4.90622238662304 1.999999999999999
    vertex 17.250000000000004 -4.850000000000002 1.999999999999999
  endloop
endfacet
facet normal 0.13052619222005207 -0.9914448613738105 -2.4986475945508995e-16
  outer loop
    vertex 17.250000000000004 -4.850000000000002 1.999999999999999
    vertex 16.822948575580842 -4.906222386623042 -0.4999999999999987
    vertex 17.250000000000004 -4.850000000000004 -0.4999999999999987
  endloop
endfacet
facet normal 0.13052619222005207 -0.9914448613738105 -2.4986475945508995e-16
  outer loop
    vertex 16.822948575580842 -4.906222386623042 -0.4999999999999987
    vertex 17.250000000000004 -4.850000000000002 1.999999999999999
    vertex 16.822948575580842 -4.90622238662304 1.999999999999999
  endloop
endfacet
facet normal 0.3826834323650908 -0.9238795325112863 -2.3283688901926403e-16
  outer loop
    vertex 16.822948575580842 -4.90622238662304 1.999999999999999
    vertex 16.425 -5.0710580837556805 -0.4999999999999987
    vertex 16.822948575580842 -4.906222386623042 -0.4999999999999987
  endloop
endfacet
facet normal 0.3826834323650908 -0.9238795325112863 -2.3283688901926403e-16
  outer loop
    vertex 16.425 -5.0710580837556805 -0.4999999999999987
    vertex 16.822948575580842 -4.90622238662304 1.999999999999999
    vertex 16.425 -5.07105808375568 1.999999999999999
  endloop
endfacet
facet normal 0.6087614290087213 -0.7933533402912348 -1.999415693779276e-16
  outer loop
    vertex 16.425 -5.07105808375568 1.999999999999999
    vertex 16.083273811042197 -5.333273811042201 -0.4999999999999987
    vertex 16.425 -5.0710580837556805 -0.4999999999999987
  endloop
endfacet
facet normal 0.6087614290087213 -0.7933533402912348 -1.999415693779276e-16
  outer loop
    vertex 16.083273811042197 -5.333273811042201 -0.4999999999999987
    vertex 16.425 -5.07105808375568 1.999999999999999
    vertex 16.083273811042197 -5.3332738110422 1.999999999999999
  endloop
endfacet
facet normal 0.7933533402912348 -0.6087614290087213 -1.5342056220255177e-16
  outer loop
    vertex 16.083273811042197 -5.333273811042201 -0.4999999999999987
    vertex 15.821058083755679 -5.6750000000000025 1.999999999999999
    vertex 15.821058083755679 -5.675000000000003 -0.4999999999999987
  endloop
endfacet
facet normal 0.7933533402912348 -0.6087614290087213 -1.5342056220255177e-16
  outer loop
    vertex 15.821058083755679 -5.6750000000000025 1.999999999999999
    vertex 16.083273811042197 -5.333273811042201 -0.4999999999999987
    vertex 16.083273811042197 -5.3332738110422 1.999999999999999
  endloop
endfacet
facet normal 0.9238795325112875 -0.3826834323650883 -9.644419725253802e-17
  outer loop
    vertex 15.821058083755679 -5.675000000000003 -0.4999999999999987
    vertex 15.656222386623039 -6.072948575580844 1.9999999999999984
    vertex 15.656222386623039 -6.0729485755808446 -0.49999999999999906
  endloop
endfacet
facet normal 0.9238795325112875 -0.3826834323650883 -9.644419725253802e-17
  outer loop
    vertex 15.656222386623039 -6.072948575580844 1.9999999999999984
    vertex 15.821058083755679 -5.675000000000003 -0.4999999999999987
    vertex 15.821058083755679 -5.6750000000000025 1.999999999999999
  endloop
endfacet
facet normal 0.9914448613738106 -0.13052619222005132 -3.289531964133644e-17
  outer loop
    vertex 15.656222386623039 -6.0729485755808446 -0.49999999999999906
    vertex 15.600000000000003 -6.500000000000002 1.9999999999999984
    vertex 15.600000000000003 -6.500000000000002 -0.49999999999999906
  endloop
endfacet
facet normal 0.9914448613738106 -0.13052619222005132 -3.289531964133644e-17
  outer loop
    vertex 15.600000000000003 -6.500000000000002 1.9999999999999984
    vertex 15.656222386623039 -6.0729485755808446 -0.49999999999999906
    vertex 15.656222386623039 -6.072948575580844 1.9999999999999984
  endloop
endfacet
facet normal 0.9914448613738105 0.13052619222005085 3.289531964133625e-17
  outer loop
    vertex 15.600000000000003 -6.500000000000002 -0.49999999999999906
    vertex 15.656222386623039 -6.9270514244191626 1.9999999999999984
    vertex 15.656222386623039 -6.9270514244191626 -0.49999999999999906
  endloop
endfacet
facet normal 0.9914448613738105 0.13052619222005085 3.289531964133625e-17
  outer loop
    vertex 15.656222386623039 -6.9270514244191626 1.9999999999999984
    vertex 15.600000000000003 -6.500000000000002 -0.49999999999999906
    vertex 15.600000000000003 -6.500000000000002 1.9999999999999984
  endloop
endfacet
facet normal 0.9238795325112871 0.38268343236508945 9.644419725253826e-17
  outer loop
    vertex 15.656222386623039 -6.9270514244191626 -0.49999999999999906
    vertex 15.821058083755679 -7.325000000000002 1.999999999999998
    vertex 15.821058083755679 -7.325000000000002 -0.49999999999999944
  endloop
endfacet
facet normal 0.9238795325112871 0.38268343236508945 9.644419725253826e-17
  outer loop
    vertex 15.821058083755679 -7.325000000000002 1.999999999999998
    vertex 15.656222386623039 -6.9270514244191626 -0.49999999999999906
    vertex 15.656222386623039 -6.9270514244191626 1.9999999999999984
  endloop
endfacet
facet normal 0.793353340291236 0.6087614290087198 1.5342056220255133e-16
  outer loop
    vertex 15.821058083755679 -7.325000000000002 -0.49999999999999944
    vertex 16.083273811042197 -7.666726188957806 1.999999999999998
    vertex 16.083273811042197 -7.666726188957806 -0.49999999999999944
  endloop
endfacet
facet normal 0.793353340291236 0.6087614290087198 1.5342056220255133e-16
  outer loop
    vertex 16.083273811042197 -7.666726188957806 1.999999999999998
    vertex 15.821058083755679 -7.325000000000002 -0.49999999999999944
    vertex 15.821058083755679 -7.325000000000002 1.999999999999998
  endloop
endfacet
facet normal 0.6087614290087181 0.7933533402912372 1.9994156937792814e-16
  outer loop
    vertex 16.083273811042197 -7.666726188957806 1.999999999999998
    vertex 16.425000000000004 -7.928941916244327 -0.49999999999999944
    vertex 16.083273811042197 -7.666726188957806 -0.49999999999999944
  endloop
endfacet
facet normal 0.6087614290087181 0.7933533402912372 1.9994156937792814e-16
  outer loop
    vertex 16.425000000000004 -7.928941916244327 -0.49999999999999944
    vertex 16.083273811042197 -7.666726188957806 1.999999999999998
    vertex 16.425000000000004 -7.928941916244327 1.999999999999998
  endloop
endfacet
facet normal 0.38268343236508945 0.9238795325112871 2.3283688901926423e-16
  outer loop
    vertex 16.425000000000004 -7.928941916244327 1.999999999999998
    vertex 16.822948575580842 -8.093777613376965 -0.49999999999999944
    vertex 16.425000000000004 -7.928941916244327 -0.49999999999999944
  endloop
endfacet
facet normal 0.38268343236508945 0.9238795325112871 2.3283688901926423e-16
  outer loop
    vertex 16.822948575580842 -8.093777613376965 -0.49999999999999944
    vertex 16.425000000000004 -7.928941916244327 1.999999999999998
    vertex 16.822948575580842 -8.093777613376965 1.999999999999998
  endloop
endfacet
facet normal 0.9238795325112871 -0.38268343236508945 -0.0
  outer loop
    vertex 15.821058083755679 25.825 -0.49999999999999556
    vertex 15.656222386623039 25.427051424419158 1.9999999999999998
    vertex 15.656222386623039 25.427051424419158 -0.49999999999999556
  endloop
endfacet
facet normal 0.9238795325112871 -0.38268343236508945 -0.0
  outer loop
    vertex 15.656222386623039 25.427051424419158 1.9999999999999998
    vertex 15.821058083755679 25.825 -0.49999999999999556
    vertex 15.821058083755679 25.825 1.9999999999999998
  endloop
endfacet
facet normal 0.9914448613738106 -0.13052619222005132 -0.0
  outer loop
    vertex 15.656222386623039 25.427051424419158 -0.49999999999999556
    vertex 15.600000000000003 25.0 1.9999999999999998
    vertex 15.600000000000003 25.0 -0.49999999999999556
  endloop
endfacet
facet normal 0.9914448613738106 -0.13052619222005132 -0.0
  outer loop
    vertex 15.600000000000003 25.0 1.9999999999999998
    vertex 15.656222386623039 25.427051424419158 -0.49999999999999556
    vertex 15.656222386623039 25.427051424419158 1.9999999999999998
  endloop
endfacet
facet normal 0.9914448613738107 0.13052619222005046 0.0
  outer loop
    vertex 15.600000000000003 25.0 -0.49999999999999556
    vertex 15.656222386623039 24.57294857558084 1.9999999999999998
    vertex 15.656222386623039 24.57294857558084 -0.49999999999999556
  endloop
endfacet
facet normal 0.9914448613738107 0.13052619222005046 0.0
  outer loop
    vertex 15.656222386623039 24.57294857558084 1.9999999999999998
    vertex 15.600000000000003 25.0 -0.49999999999999556
    vertex 15.600000000000003 25.0 1.9999999999999998
  endloop
endfacet
facet normal 0.9238795325112871 0.38268343236508945 0.0
  outer loop
    vertex 15.656222386623039 24.57294857558084 -0.49999999999999556
    vertex 15.821058083755679 24.174999999999997 1.9999999999999998
    vertex 15.821058083755679 24.174999999999997 -0.49999999999999556
  endloop
endfacet
facet normal 0.9238795325112871 0.38268343236508945 0.0
  outer loop
    vertex 15.821058083755679 24.174999999999997 1.9999999999999998
    vertex 15.656222386623039 24.57294857558084 -0.49999999999999556
    vertex 15.656222386623039 24.57294857558084 1.9999999999999998
  endloop
endfacet
facet normal 0.7933533402912348 0.6087614290087213 0.0
  outer loop
    vertex 15.821058083755679 24.174999999999997 -0.49999999999999556
    vertex 16.083273811042197 23.833273811042194 1.9999999999999998
    vertex 16.083273811042197 23.833273811042194 -0.49999999999999556
  endloop
endfacet
facet normal 0.7933533402912348 0.6087614290087213 0.0
  outer loop
    vertex 16.083273811042197 23.833273811042194 1.9999999999999998
    vertex 15.821058083755679 24.174999999999997 -0.49999999999999556
    vertex 15.821058083755679 24.174999999999997 1.9999999999999998
  endloop
endfacet
facet normal 0.6087614290087181 0.7933533402912372 0.0
  outer loop
    vertex 16.083273811042197 23.833273811042194 1.9999999999999998
    vertex 16.425000000000004 23.571058083755673 -0.49999999999999556
    vertex 16.083273811042197 23.833273811042194 -0.49999999999999556
  endloop
endfacet
facet normal 0.6087614290087181 0.7933533402912372 0.0
  outer loop
    vertex 16.425000000000004 23.571058083755673 -0.49999999999999556
    vertex 16.083273811042197 23.833273811042194 1.9999999999999998
    vertex 16.425000000000004 23.571058083755673 1.9999999999999998
  endloop
endfacet
facet normal 0.38268343236508945 0.9238795325112871 0.0
  outer loop
    vertex 16.425000000000004 23.571058083755673 1.9999999999999998
    vertex 16.822948575580842 23.406222386623035 -0.49999999999999556
    vertex 16.425000000000004 23.571058083755673 -0.49999999999999556
  endloop
endfacet
facet normal 0.38268343236508945 0.9238795325112871 0.0
  outer loop
    vertex 16.822948575580842 23.406222386623035 -0.49999999999999556
    vertex 16.425000000000004 23.571058083755673 1.9999999999999998
    vertex 16.822948575580842 23.406222386623035 1.9999999999999998
  endloop
endfacet
facet normal 0.13052619222005132 0.9914448613738106 0.0
  outer loop
    vertex 16.822948575580842 23.406222386623035 1.9999999999999998
    vertex 17.250000000000004 23.349999999999998 -0.49999999999999556
    vertex 16.822948575580842 23.406222386623035 -0.49999999999999556
  endloop
endfacet
facet normal 0.13052619222005132 0.9914448613738106 0.0
  outer loop
    vertex 17.250000000000004 23.349999999999998 -0.49999999999999556
    vertex 16.822948575580842 23.406222386623035 1.9999999999999998
    vertex 17.250000000000004 23.349999999999998 1.9999999999999998
  endloop
endfacet
facet normal -0.13052619222005046 0.9914448613738107 -0.0
  outer loop
    vertex 17.250000000000004 23.349999999999998 1.9999999999999998
    vertex 17.677051424419165 23.406222386623035 -0.49999999999999556
    vertex 17.250000000000004 23.349999999999998 -0.49999999999999556
  endloop
endfacet
facet normal -0.13052619222005046 0.9914448613738107 -0.0
  outer loop
    vertex 17.677051424419165 23.406222386623035 -0.49999999999999556
    vertex 17.250000000000004 23.349999999999998 1.9999999999999998
    vertex 17.677051424419165 23.406222386623035 1.9999999999999998
  endloop
endfacet
facet normal -0.38268343236508945 0.9238795325112871 -0.0
  outer loop
    vertex 17.677051424419165 23.406222386623035 1.9999999999999998
    vertex 18.075000000000003 23.571058083755673 -0.49999999999999556
    vertex 17.677051424419165 23.406222386623035 -0.49999999999999556
  endloop
endfacet
facet normal -0.38268343236508945 0.9238795325112871 -0.0
  outer loop
    vertex 18.075000000000003 23.571058083755673 -0.49999999999999556
    vertex 17.677051424419165 23.406222386623035 1.9999999999999998
    vertex 18.075000000000003 23.571058083755673 1.9999999999999998
  endloop
endfacet
facet normal -0.6087614290087213 0.7933533402912348 -0.0
  outer loop
    vertex 18.075000000000003 23.571058083755673 1.9999999999999998
    vertex 18.416726188957806 23.833273811042194 -0.49999999999999556
    vertex 18.075000000000003 23.571058083755673 -0.49999999999999556
  endloop
endfacet
facet normal -0.6087614290087213 0.7933533402912348 -0.0
  outer loop
    vertex 18.416726188957806 23.833273811042194 -0.49999999999999556
    vertex 18.075000000000003 23.571058083755673 1.9999999999999998
    vertex 18.416726188957806 23.833273811042194 1.9999999999999998
  endloop
endfacet
facet normal -0.7933533402912372 0.6087614290087181 -0.0
  outer loop
    vertex 18.678941916244327 24.175 1.9999999999999998
    vertex 18.416726188957806 23.833273811042194 -0.49999999999999556
    vertex 18.416726188957806 23.833273811042194 1.9999999999999998
  endloop
endfacet
facet normal -0.7933533402912372 0.6087614290087181 -0.0
  outer loop
    vertex 18.416726188957806 23.833273811042194 -0.49999999999999556
    vertex 18.678941916244327 24.175 1.9999999999999998
    vertex 18.678941916244327 24.175 -0.49999999999999556
  endloop
endfacet
facet normal -0.9238795325112871 0.38268343236508945 -0.0
  outer loop
    vertex 18.843777613376965 24.572948575580842 1.9999999999999998
    vertex 18.678941916244327 24.175 -0.49999999999999556
    vertex 18.678941916244327 24.175 1.9999999999999998
  endloop
endfacet
facet normal -0.9238795325112871 0.38268343236508945 -0.0
  outer loop
    vertex 18.678941916244327 24.175 -0.49999999999999556
    vertex 18.843777613376965 24.572948575580842 1.9999999999999998
    vertex 18.843777613376965 24.572948575580842 -0.49999999999999556
  endloop
endfacet
facet normal -0.9914448613738106 0.13052619222005132 -0.0
  outer loop
    vertex 18.900000000000002 25.0 1.9999999999999998
    vertex 18.843777613376965 24.572948575580842 -0.49999999999999556
    vertex 18.843777613376965 24.572948575580842 1.9999999999999998
  endloop
endfacet
facet normal -0.9914448613738106 0.13052619222005132 -0.0
  outer loop
    vertex 18.843777613376965 24.572948575580842 -0.49999999999999556
    vertex 18.900000000000002 25.0 1.9999999999999998
    vertex 18.900000000000002 25.0 -0.49999999999999556
  endloop
endfacet
facet normal -0.9914448613738106 -0.13052619222005132 -0.0
  outer loop
    vertex 18.843777613376965 25.427051424419158 1.9999999999999998
    vertex 18.900000000000002 25.0 -0.49999999999999556
    vertex 18.900000000000002 25.0 1.9999999999999998
  endloop
endfacet
facet normal -0.9914448613738106 -0.13052619222005132 -0.0
  outer loop
    vertex 18.900000000000002 25.0 -0.49999999999999556
    vertex 18.843777613376965 25.427051424419158 1.9999999999999998
    vertex 18.843777613376965 25.427051424419158 -0.49999999999999556
  endloop
endfacet
facet normal -0.9238795325112871 -0.38268343236508945 -0.0
  outer loop
    vertex 18.678941916244327 25.825 1.9999999999999998
    vertex 18.843777613376965 25.427051424419158 -0.49999999999999556
    vertex 18.843777613376965 25.427051424419158 1.9999999999999998
  endloop
endfacet
facet normal -0.9238795325112871 -0.38268343236508945 -0.0
  outer loop
    vertex 18.843777613376965 25.427051424419158 -0.49999999999999556
    vertex 18.678941916244327 25.825 1.9999999999999998
    vertex 18.678941916244327 25.825 -0.49999999999999556
  endloop
endfacet
facet normal -0.7933533402912372 -0.6087614290087181 -0.0
  outer loop
    vertex 18.416726188957806 26.166726188957803 1.9999999999999998
    vertex 18.678941916244327 25.825 -0.49999999999999556
    vertex 18.678941916244327 25.825 1.9999999999999998
  endloop
endfacet
facet normal -0.7933533402912372 -0.6087614290087181 -0.0
  outer loop
    vertex 18.678941916244327 25.825 -0.49999999999999556
    vertex 18.416726188957806 26.166726188957803 1.9999999999999998
    vertex 18.416726188957806 26.166726188957803 -0.49999999999999556
  endloop
endfacet
facet normal -0.6087614290087181 -0.7933533402912372 -0.0
  outer loop
    vertex 18.416726188957806 26.166726188957803 1.9999999999999998
    vertex 18.075 26.428941916244323 -0.49999999999999556
    vertex 18.416726188957806 26.166726188957803 -0.49999999999999556
  endloop
endfacet
facet normal -0.6087614290087181 -0.7933533402912372 -0.0
  outer loop
    vertex 18.075 26.428941916244323 -0.49999999999999556
    vertex 18.416726188957806 26.166726188957803 1.9999999999999998
    vertex 18.075 26.428941916244323 1.9999999999999998
  endloop
endfacet
facet normal -0.38268343236508945 -0.9238795325112871 -0.0
  outer loop
    vertex 18.075 26.428941916244323 1.9999999999999998
    vertex 17.67705142441916 26.59377761337696 -0.49999999999999556
    vertex 18.075 26.428941916244323 -0.49999999999999556
  endloop
endfacet
facet normal -0.38268343236508945 -0.9238795325112871 -0.0
  outer loop
    vertex 17.67705142441916 26.59377761337696 -0.49999999999999556
    vertex 18.075 26.428941916244323 1.9999999999999998
    vertex 17.67705142441916 26.59377761337696 1.9999999999999998
  endloop
endfacet
facet normal -0.13052619222004486 -0.9914448613738113 -0.0
  outer loop
    vertex 17.67705142441916 26.59377761337696 1.9999999999999998
    vertex 17.250000000000004 26.649999999999995 -0.49999999999999556
    vertex 17.67705142441916 26.59377761337696 -0.49999999999999556
  endloop
endfacet
facet normal -0.13052619222004486 -0.9914448613738113 -0.0
  outer loop
    vertex 17.250000000000004 26.649999999999995 -0.49999999999999556
    vertex 17.67705142441916 26.59377761337696 1.9999999999999998
    vertex 17.250000000000004 26.649999999999995 1.9999999999999998
  endloop
endfacet
facet normal 0.13052619222004486 -0.9914448613738113 -0.0
  outer loop
    vertex 17.250000000000004 26.649999999999995 1.9999999999999998
    vertex 16.822948575580842 26.59377761337696 -0.49999999999999556
    vertex 17.250000000000004 26.649999999999995 -0.49999999999999556
  endloop
endfacet
facet normal 0.13052619222004486 -0.9914448613738113 -0.0
  outer loop
    vertex 16.822948575580842 26.59377761337696 -0.49999999999999556
    vertex 17.250000000000004 26.649999999999995 1.9999999999999998
    vertex 16.822948575580842 26.59377761337696 1.9999999999999998
  endloop
endfacet
facet normal 0.38268343236508706 -0.923879532511288 -0.0
  outer loop
    vertex 16.822948575580842 26.59377761337696 1.9999999999999998
    vertex 16.425 26.428941916244323 -0.49999999999999556
    vertex 16.822948575580842 26.59377761337696 -0.49999999999999556
  endloop
endfacet
facet normal 0.38268343236508706 -0.923879532511288 -0.0
  outer loop
    vertex 16.425 26.428941916244323 -0.49999999999999556
    vertex 16.822948575580842 26.59377761337696 1.9999999999999998
    vertex 16.425 26.428941916244323 1.9999999999999998
  endloop
endfacet
facet normal 0.6087614290087213 -0.7933533402912348 -0.0
  outer loop
    vertex 16.425 26.428941916244323 1.9999999999999998
    vertex 16.083273811042197 26.166726188957803 -0.49999999999999556
    vertex 16.425 26.428941916244323 -0.49999999999999556
  endloop
endfacet
facet normal 0.6087614290087213 -0.7933533402912348 -0.0
  outer loop
    vertex 16.083273811042197 26.166726188957803 -0.49999999999999556
    vertex 16.425 26.428941916244323 1.9999999999999998
    vertex 16.083273811042197 26.166726188957803 1.9999999999999998
  endloop
endfacet
facet normal 0.7933533402912372 -0.6087614290087181 -0.0
  outer loop
    vertex 16.083273811042197 26.166726188957803 -0.49999999999999556
    vertex 15.821058083755679 25.825 1.9999999999999998
    vertex 15.821058083755679 25.825 -0.49999999999999556
  endloop
endfacet
facet normal 0.7933533402912372 -0.6087614290087181 -0.0
  outer loop
    vertex 15.821058083755679 25.825 1.9999999999999998
    vertex 16.083273811042197 26.166726188957803 -0.49999999999999556
    vertex 16.083273811042197 26.166726188957803 1.9999999999999998
  endloop
endfacet
endsolid uploads_e5_45_75_3a_7b_knockoff-pro-mini-base
